<?xml version="1.0" encoding="UTF-8" standalone="no"?>
<!DOCTYPE svg PUBLIC "-//W3C//DTD SVG 1.1//EN" "http://www.w3.org/Graphics/SVG/1.1/DTD/svg11.dtd">
<svg width="100%" height="100%" viewBox="0 0 169 84" version="1.1" xmlns="http://www.w3.org/2000/svg" xmlns:xlink="http://www.w3.org/1999/xlink" xml:space="preserve" xmlns:serif="http://www.serif.com/" style="fill-rule:evenodd;clip-rule:evenodd;stroke-linejoin:round;stroke-miterlimit:2;">
    <g>
        <g>
            <path d="M168.77,41.7C168.765,64.567 149.947,83.38 127.08,83.38C104.21,83.38 85.39,64.56 85.39,41.69C85.39,18.823 104.203,0.005 127.07,0C127.077,-0 127.083,-0 127.09,-0C149.955,-0 168.77,18.815 168.77,41.68C168.77,41.687 168.77,41.693 168.77,41.7Z" style="fill:rgb(26,26,26);fill-rule:nonzero;"/>
        </g>
        <path d="M127.07,2C127.073,2 127.077,2 127.08,2C148.853,2 166.77,19.917 166.77,41.69C166.77,63.463 148.853,81.38 127.08,81.38C105.31,81.38 87.395,63.47 87.39,41.7C87.417,19.939 105.309,2.038 127.07,2M127.07,0C104.203,0.005 85.39,18.823 85.39,41.69C85.39,64.56 104.21,83.38 127.08,83.38C149.947,83.38 168.765,64.567 168.77,41.7C168.77,41.697 168.77,41.693 168.77,41.69C168.77,18.82 149.95,-0 127.08,-0C127.077,-0 127.073,-0 127.07,0Z" style="fill:rgb(38,38,38);fill-rule:nonzero;"/>
        <g opacity="0.06">
            <path d="M163.09,41.7C163.09,61.449 146.839,77.7 127.09,77.7C107.341,77.7 91.09,61.449 91.09,41.7C91.09,21.951 107.341,5.7 127.09,5.7C146.839,5.7 163.09,21.951 163.09,41.7Z" style="fill:white;fill-rule:nonzero;"/>
        </g>
        <g>
            <path d="M127.07,69.83C111.638,69.83 98.94,57.132 98.94,41.7C98.94,26.268 111.638,13.57 127.07,13.57C142.502,13.57 155.2,26.268 155.2,41.7C155.189,57.128 142.498,69.819 127.07,69.83Z" style="fill:rgb(33,33,33);fill-rule:nonzero;"/>
            <path d="M127.07,16.58C127.09,16.58 127.11,16.58 127.13,16.58C140.916,16.58 152.26,27.924 152.26,41.71C152.26,55.496 140.916,66.84 127.13,66.84C113.344,66.84 102,55.496 102,41.71C102,41.707 102,41.703 102,41.7C102.016,27.926 113.346,16.596 127.12,16.58M127.12,10.58C127.103,10.58 127.087,10.58 127.07,10.58C109.993,10.58 95.94,24.633 95.94,41.71C95.94,58.787 109.993,72.84 127.07,72.84C144.147,72.84 158.2,58.787 158.2,41.71L158.2,41.7C158.2,24.628 144.152,10.58 127.08,10.58C127.077,10.58 127.073,10.58 127.07,10.58L127.12,10.58Z" style="fill:rgb(26,26,26);fill-rule:nonzero;"/>
        </g>
    </g>
    <g id="LS_pressed">
        <g>
            <path d="M83.39,41.7C83.39,64.576 64.566,83.4 41.69,83.4C18.814,83.4 -0.01,64.576 -0.01,41.7C-0.01,18.824 18.814,0 41.69,0C41.693,-0 41.697,-0 41.7,-0C64.57,-0 83.39,18.82 83.39,41.69C83.39,41.693 83.39,41.697 83.39,41.7Z" style="fill:rgb(229,229,229);fill-rule:nonzero;"/>
        </g>
        <path d="M41.69,2C63.463,2 81.38,19.917 81.38,41.69C81.38,63.463 63.463,81.38 41.69,81.38C19.92,81.38 2.005,63.47 2,41.7C2.027,19.935 19.925,2.033 41.69,2M41.69,0C18.823,0.005 0.01,18.823 0.01,41.69C0.01,64.56 18.83,83.38 41.7,83.38C64.567,83.38 83.385,64.567 83.39,41.7C83.39,41.697 83.39,41.693 83.39,41.69C83.39,18.82 64.57,-0 41.7,-0C41.697,-0 41.693,-0 41.69,0Z" style="fill:rgb(217,217,217);fill-rule:nonzero;"/>
        <g opacity="0.06">
            <path d="M77.71,41.7C77.71,61.449 61.459,77.7 41.71,77.7C21.961,77.7 5.71,61.449 5.71,41.7C5.71,21.951 21.961,5.7 41.71,5.7C61.459,5.7 77.71,21.951 77.71,41.7Z" style="fill-rule:nonzero;"/>
        </g>
        <g>
            <path d="M41.69,69.83C41.687,69.83 41.683,69.83 41.68,69.83C26.248,69.83 13.55,57.132 13.55,41.7C13.55,26.268 26.248,13.57 41.68,13.57C57.112,13.57 69.81,26.268 69.81,41.7C69.794,57.122 57.112,69.808 41.69,69.83Z" style="fill:rgb(222,222,222);fill-rule:nonzero;"/>
            <path d="M41.69,16.58C55.476,16.58 66.82,27.924 66.82,41.71C66.82,55.496 55.476,66.84 41.69,66.84C27.904,66.84 16.56,55.496 16.56,41.71C16.56,41.707 16.56,41.703 16.56,41.7C16.576,27.922 27.912,16.591 41.69,16.58M41.69,10.58C41.687,10.58 41.683,10.58 41.68,10.58C24.603,10.58 10.55,24.633 10.55,41.71C10.55,58.787 24.603,72.84 41.68,72.84C58.757,72.84 72.81,58.787 72.81,41.71C72.81,41.707 72.81,41.703 72.81,41.7C72.81,24.628 58.762,10.58 41.69,10.58Z" style="fill:rgb(229,229,229);fill-rule:nonzero;"/>
        </g>
    </g>
</svg>
