<?xml version="1.0" encoding="UTF-8" standalone="no"?>
<!DOCTYPE svg PUBLIC "-//W3C//DTD SVG 1.1//EN" "http://www.w3.org/Graphics/SVG/1.1/DTD/svg11.dtd">
<svg width="100%" height="100%" viewBox="0 0 196 97" version="1.1" xmlns="http://www.w3.org/2000/svg" xmlns:xlink="http://www.w3.org/1999/xlink" xml:space="preserve" xmlns:serif="http://www.serif.com/" style="fill-rule:evenodd;clip-rule:evenodd;stroke-linejoin:round;stroke-miterlimit:2;">
    <g>
        <g>
            <g id="A">
                <path d="M23.69,0C36.677,0.005 47.36,10.693 47.36,23.68C47.36,36.67 36.67,47.36 23.68,47.36C10.69,47.36 0,36.67 0,23.68C0.005,10.688 10.698,-0 23.69,0Z" style="fill:rgb(20,20,20);fill-rule:nonzero;"/>
            </g>
            <g>
                <path d="M32.45,38.83L29.67,31.17L17.54,31.17L14.9,38.83L9.42,38.83L20.88,8.53L26.47,8.53L38,38.83L32.45,38.83ZM23.66,13.08L23.53,13.08C23.455,13.817 23.304,14.544 23.08,15.25L18.94,26.93L28.24,26.93L24.07,15.25C23.864,14.542 23.727,13.815 23.66,13.08Z" style="fill:rgb(57,181,74);fill-rule:nonzero;"/>
            </g>
        </g>
        <g>
            <g id="B">
                <path d="M73.08,0C86.076,-0 96.77,10.694 96.77,23.69C96.77,36.686 86.076,47.38 73.08,47.38C60.084,47.38 49.39,36.686 49.39,23.69C49.395,10.696 60.086,0.005 73.08,0Z" style="fill:rgb(20,20,20);fill-rule:nonzero;"/>
            </g>
            <g>
                <path d="M83.29,30C83.361,32.468 82.276,34.833 80.36,36.39C78.214,38.081 75.529,38.944 72.8,38.82L62.89,38.82L62.89,8.53L72.46,8.53C74.892,8.408 77.3,9.067 79.33,10.41C80.962,11.581 81.908,13.492 81.85,15.5C81.874,17.08 81.343,18.62 80.35,19.85C79.326,21.133 77.928,22.066 76.35,22.52L76.35,22.61C78.283,22.773 80.096,23.621 81.46,25C82.684,26.372 83.339,28.162 83.29,30ZM76.52,16.47C76.566,15.378 76.068,14.331 75.19,13.68C73.993,12.94 72.595,12.591 71.19,12.68L67.93,12.68L67.93,21.07L71.16,21.07C72.594,21.168 74.017,20.742 75.16,19.87C76.098,18.997 76.597,17.749 76.52,16.47ZM78,29.87C78.061,28.551 77.484,27.281 76.45,26.46C75.063,25.56 73.419,25.139 71.77,25.26L67.93,25.26L67.93,34.67L72.17,34.67C73.694,34.757 75.2,34.291 76.41,33.36C77.462,32.515 78.053,31.219 78,29.87Z" style="fill:rgb(193,39,45);fill-rule:nonzero;"/>
            </g>
        </g>
        <g>
            <g id="Y">
                <path d="M171.87,0C184.866,-0 195.56,10.694 195.56,23.69C195.56,36.686 184.866,47.38 171.87,47.38C158.874,47.38 148.18,36.686 148.18,23.69C148.18,10.694 158.874,0 171.87,0Z" style="fill:rgb(20,20,20);fill-rule:nonzero;"/>
            </g>
            <g>
                <path d="M174.27,27.85L174.27,38.85L169.27,38.85L169.27,28L159.42,8.53L165.14,8.53L171.24,21.18C171.422,21.538 171.57,21.913 171.68,22.3C171.78,22.64 171.85,22.91 171.93,23.13C172.081,22.467 172.312,21.826 172.62,21.22L179,8.53L184.31,8.53L174.27,27.85Z" style="fill:rgb(252,238,33);fill-rule:nonzero;"/>
            </g>
        </g>
        <g>
            <g id="X">
                <path d="M122.47,0C122.473,-0 122.477,-0 122.48,-0C135.476,-0 146.17,10.694 146.17,23.69C146.17,36.686 135.476,47.38 122.48,47.38C109.484,47.38 98.79,36.686 98.79,23.69C98.795,10.7 109.48,0.011 122.47,-0Z" style="fill:rgb(20,20,20);fill-rule:nonzero;"/>
            </g>
            <g>
                <path d="M129.59,38.83L123.18,27.83C123.06,27.585 122.96,27.331 122.88,27.07C122.825,26.812 122.752,26.558 122.66,26.31L122.57,26.31C122.46,26.58 122.38,26.83 122.3,27.08C122.211,27.339 122.101,27.59 121.97,27.83L115.44,38.83L109.32,38.83L119.46,23.64L110.2,8.53L116.39,8.53L121.79,18.53C122.214,19.243 122.55,20.006 122.79,20.8L122.87,20.8C123.17,20.01 123.4,19.49 123.52,19.24C123.64,18.99 125.73,15.44 129.79,8.58L135.47,8.58L126.01,23.58L135.59,38.86L129.59,38.83Z" style="fill:rgb(0,113,188);fill-rule:nonzero;"/>
            </g>
        </g>
    </g>
    <g>
        <g>
            <g id="A-2">
                <path d="M23.69,49.38C36.677,49.385 47.36,60.073 47.36,73.06C47.36,86.05 36.67,96.74 23.68,96.74C10.69,96.74 0,86.05 0,73.06L-0,73.06C-0,60.07 10.69,49.38 23.68,49.38C23.683,49.38 23.687,49.38 23.69,49.38Z" style="fill:white;fill-rule:nonzero;"/>
            </g>
            <g>
                <path d="M32.45,88.21L29.67,80.55L17.54,80.55L14.9,88.21L9.42,88.21L20.88,57.9L26.47,57.9L38,88.21L32.45,88.21ZM23.66,62.46L23.53,62.46C23.453,63.197 23.302,63.923 23.08,64.63L18.94,76.31L28.24,76.31L24.07,64.63C23.865,63.921 23.728,63.195 23.66,62.46Z" style="fill:rgb(127,215,139);fill-rule:nonzero;"/>
            </g>
        </g>
        <g>
            <g id="B-2">
                <path d="M73.08,49.37C86.076,49.37 96.77,60.064 96.77,73.06C96.77,86.056 86.076,96.75 73.08,96.75C60.084,96.75 49.39,86.056 49.39,73.06C49.395,60.066 60.086,49.375 73.08,49.37Z" style="fill:white;fill-rule:nonzero;"/>
            </g>
            <g>
                <path d="M83.29,79.38C83.364,81.849 82.279,84.215 80.36,85.77C78.215,87.464 75.53,88.33 72.8,88.21L62.89,88.21L62.89,57.9L72.46,57.9C74.893,57.776 77.303,58.438 79.33,59.79C80.969,60.955 81.917,62.87 81.85,64.88C81.873,66.457 81.342,67.993 80.35,69.22C79.329,70.506 77.929,71.44 76.35,71.89L76.35,72C78.27,72.154 80.071,72.996 81.42,74.37C82.666,75.736 83.336,77.532 83.29,79.38ZM76.52,65.84C76.566,64.748 76.068,63.701 75.19,63.05C73.992,62.311 72.594,61.961 71.19,62.05L67.93,62.05L67.93,70.43L71.16,70.43C72.594,70.528 74.017,70.102 75.16,69.23C76.098,68.361 76.597,67.116 76.52,65.84ZM78,79.25C78.063,77.931 77.485,76.66 76.45,75.84C75.066,74.933 73.42,74.507 71.77,74.63L67.93,74.63L67.93,84.05L72.17,84.05C73.694,84.137 75.2,83.671 76.41,82.74C77.46,81.893 78.05,80.598 78,79.25Z" style="fill:rgb(225,107,111);fill-rule:nonzero;"/>
            </g>
        </g>
        <g>
            <g id="Y-2">
                <path d="M171.87,49.37C184.866,49.37 195.56,60.064 195.56,73.06C195.56,86.056 184.866,96.75 171.87,96.75C158.874,96.75 148.18,86.056 148.18,73.06C148.185,60.066 158.876,49.375 171.87,49.37Z" style="fill:white;fill-rule:nonzero;"/>
            </g>
            <g>
                <path d="M174.27,77.22L174.27,88.22L169.27,88.22L169.27,77.34L159.42,57.91L165.14,57.91L171.24,70.55C171.422,70.908 171.57,71.283 171.68,71.67C171.78,72.01 171.85,72.28 171.93,72.5C172.081,71.841 172.313,71.202 172.62,70.6L179,57.91L184.31,57.91L174.27,77.22Z" style="fill:rgb(253,243,101);fill-rule:nonzero;"/>
            </g>
        </g>
        <g>
            <g id="X-2">
                <path d="M122.47,49.37C122.473,49.37 122.477,49.37 122.48,49.37C135.476,49.37 146.17,60.064 146.17,73.06C146.17,86.056 135.476,96.75 122.48,96.75C109.484,96.75 98.79,86.056 98.79,73.06C98.795,60.07 109.48,49.381 122.47,49.37Z" style="fill:white;fill-rule:nonzero;"/>
            </g>
            <g>
                <path d="M129.59,88.21L123.18,77.21C123.06,76.962 122.959,76.704 122.88,76.44C122.824,76.182 122.75,75.928 122.66,75.68L122.57,75.68C122.46,75.96 122.38,76.2 122.3,76.46C122.211,76.719 122.101,76.97 121.97,77.21L115.44,88.21L109.32,88.21L119.46,73L110.2,57.9L116.38,57.9L121.79,67.9C122.21,68.612 122.545,69.371 122.79,70.16L122.87,70.16C123.17,69.37 123.4,68.85 123.52,68.6C123.64,68.35 125.73,64.81 129.79,57.94L135.47,57.94L126.01,72.94L135.59,88.23L129.59,88.21Z" style="fill:rgb(105,195,255);fill-rule:nonzero;"/>
            </g>
        </g>
    </g>
</svg>
