<?xml version="1.0" encoding="UTF-8" standalone="no"?>
<!DOCTYPE svg PUBLIC "-//W3C//DTD SVG 1.1//EN" "http://www.w3.org/Graphics/SVG/1.1/DTD/svg11.dtd">
<svg width="750" height="630.46" viewBox="0 0 750 630.46" version="1.1" xmlns="http://www.w3.org/2000/svg" xmlns:xlink="http://www.w3.org/1999/xlink" xml:space="preserve" xmlns:serif="http://www.serif.com/" style="fill-rule:evenodd;clip-rule:evenodd;">
    <g id="Layer_1-2">
        <path d="M107.46,191.96L107.46,193.52" style="fill:none;fill-rule:nonzero;"/>
        <path d="M642.55,191.47L642.55,192.42" style="fill:none;fill-rule:nonzero;"/>
        <g id="Dpad">
            <g>
                <g>
                    <path d="M277.67,452.7C270.54,452.7 264.93,451.38 264.62,449.62C264.615,449.57 264.615,449.52 264.62,449.47L264.62,415.05C264.62,414.776 264.394,414.55 264.12,414.55L229.69,414.55C227.87,414.55 226.44,408.81 226.44,401.49C226.44,394.17 227.87,388.43 229.69,388.43L264.11,388.43C264.384,388.43 264.61,388.204 264.61,387.93L264.61,353.51C264.605,353.463 264.605,353.417 264.61,353.37L264.67,353.14L264.75,353.01C265.25,352.2 266.86,351.49 269.29,351.01L270.18,350.83C270.511,350.769 270.845,350.726 271.18,350.7L271.34,350.7L272.24,350.59L273.24,350.48L274.24,350.4L276.6,350.32L277.65,350.32C284.98,350.32 290.71,351.74 290.71,353.55L290.71,387.97C290.71,388.244 290.936,388.47 291.21,388.47L325.62,388.47C327.43,388.47 328.85,394.21 328.85,401.53C328.85,408.85 327.43,414.59 325.62,414.59L291.24,414.59C290.966,414.59 290.74,414.816 290.74,415.09L290.74,449.51C290.745,449.56 290.745,449.61 290.74,449.66C290.42,451.38 284.8,452.7 277.67,452.7Z" style="fill:rgb(20,20,20);fill-rule:nonzero;"/>
                    <path d="M277.67,350.78C285.76,350.78 290.23,352.39 290.23,353.51L290.23,387.94C290.23,388.489 290.681,388.94 291.23,388.94L325.65,388.94C326.79,388.94 328.38,393.71 328.38,401.49C328.38,409.27 326.79,414.05 325.65,414.05L291.23,414.05C290.681,414.05 290.23,414.501 290.23,415.05L290.23,449.54C290.03,450.65 285.56,452.2 277.67,452.2C269.78,452.2 265.31,450.65 265.11,449.54L265.11,415.05C265.11,414.501 264.659,414.05 264.11,414.05L229.69,414.05C228.54,414.05 226.94,409.27 226.94,401.49C226.94,393.71 228.54,388.93 229.69,388.93L264.11,388.93C264.659,388.93 265.11,388.479 265.11,387.93L265.11,353.47C265.114,353.423 265.114,353.377 265.11,353.33L265.11,353.28C265.26,353.03 266.02,352.16 269.3,351.52L269.36,351.52C269.63,351.45 269.91,351.4 270.19,351.35L270.27,351.35C270.534,351.297 270.801,351.261 271.07,351.24L271.25,351.24L272.17,351.12L273.17,351.01L274.17,350.93L277.58,350.93M277.58,349.93L274.09,349.93L273.09,350.01L272.09,350.12L271.09,350.25L271.04,350.25C270.725,350.277 270.411,350.32 270.1,350.38L270.02,350.38L269.14,350.56C266.71,351.04 264.89,351.78 264.28,352.79C264.232,352.835 264.195,352.889 264.17,352.95C264.165,353.01 264.165,353.07 264.17,353.13C264.166,353.177 264.166,353.223 264.17,353.27C264.161,353.343 264.161,353.417 264.17,353.49L264.17,387.92L229.69,387.92C224.69,387.92 224.69,415.03 229.69,415.03L264.11,415.03L264.11,449.45C264.1,449.53 264.1,449.61 264.11,449.69C264.51,452.02 271.11,453.18 277.65,453.18C284.19,453.18 290.78,452.02 291.19,449.69C291.195,449.61 291.195,449.53 291.19,449.45L291.19,415.05L325.61,415.05C330.61,415.05 330.61,387.94 325.61,387.94L291.23,387.94L291.23,353.51C291.23,351.01 284.44,349.78 277.67,349.78L277.58,349.93Z" style="fill:rgb(18,11,11);fill-rule:nonzero;"/>
                </g>
                <path d="M264.11,387.94L260.51,384.31L229.69,384.31C228.7,384.316 227.734,384.612 226.91,385.16L229.69,387.94L264.11,387.94Z" style="fill:rgb(36,36,36);fill-rule:nonzero;"/>
                <path d="M229.69,387.94L226.9,385.16C225.54,386.09 224.23,387.9 223.38,391.3C222.007,398.024 222.007,404.956 223.38,411.68C224.23,415.08 225.54,416.89 226.9,417.82L229.69,415.05C224.69,415.05 224.69,387.94 229.69,387.94Z" style="fill:rgb(41,41,41);fill-rule:nonzero;"/>
                <path d="M269.2,350.52L270.09,350.34L270.16,350.34C270.47,350.275 270.784,350.232 271.1,350.21L271.16,350.21L272.16,350.08L273.16,349.97L273.21,349.97L274.21,349.89L277.68,349.89C284.45,349.89 291.25,351.12 291.25,353.62L294,350.85C293.1,349.48 291.29,348.14 287.86,347.32C281.143,345.947 274.217,345.947 267.5,347.32C264.56,348.04 262.79,349.12 261.78,350.32L264.35,352.89C265,351.74 266.77,351 269.2,350.52Z" style="fill:rgb(36,36,36);fill-rule:nonzero;"/>
                <path d="M325.65,387.94L328.41,385.16C327.594,384.611 326.633,384.316 325.65,384.31L294.84,384.31L291.23,387.94L325.65,387.94Z" style="fill:rgb(25,25,25);fill-rule:nonzero;"/>
                <path d="M291.23,353.51L291.23,387.93L294.83,384.31L294.83,353.51C294.826,352.523 294.53,351.559 293.98,350.74L291.22,353.51L291.23,353.51Z" style="fill:rgb(28,28,28);fill-rule:nonzero;"/>
                <path d="M264.11,353.51C264.106,353.437 264.106,353.363 264.11,353.29L264.11,352.97C264.141,352.91 264.178,352.853 264.22,352.8L261.65,350.23C260.834,351.15 260.385,352.34 260.39,353.57L260.39,384.37L263.99,387.99L264.11,353.51Z" style="fill:rgb(41,41,41);fill-rule:nonzero;"/>
                <path d="M325.65,415.05L291.23,415.05L294.83,418.67L327.15,418.67L327.49,418.32C327.812,418.186 328.12,418.022 328.41,417.83L325.65,415.05Z" style="fill:rgb(23,23,23);fill-rule:nonzero;"/>
                <path d="M291.23,449.47L293.99,452.24C294.537,451.42 294.829,450.456 294.83,449.47L294.83,418.67L291.23,415.05L291.23,449.47Z" style="fill:rgb(15,15,15);fill-rule:nonzero;"/>
                <path d="M332,391.3C331.16,387.9 329.82,386.09 328.45,385.16L325.69,387.93C330.69,387.93 330.69,415.05 325.69,415.05L328.46,417.83C329.82,416.9 331.16,415.08 332,411.68C332.72,408.332 333.055,404.914 333,401.49C333.051,398.067 332.715,394.648 332,391.3Z" style="fill:rgb(15,15,15);fill-rule:nonzero;"/>
                <path d="M291.21,449.71C290.81,452.04 284.21,453.2 277.67,453.2C271.13,453.2 264.54,452.04 264.13,449.71C264.126,449.63 264.126,449.55 264.13,449.47L261.34,452.24C262.27,453.61 264.09,454.95 267.51,455.77C274.226,457.157 281.154,457.157 287.87,455.77C291.3,454.95 293.11,453.61 294.01,452.24L291.26,449.47C291.23,449.54 291.23,449.62 291.21,449.71Z" style="fill:rgb(23,23,23);fill-rule:nonzero;"/>
                <path d="M264.11,449.47L264.11,415.05L260.51,418.67L260.51,450.32L260.6,450.55C260.736,451.152 260.979,451.725 261.32,452.24L264.11,449.47Z" style="fill:rgb(28,28,28);fill-rule:nonzero;"/>
                <path d="M229.69,415.05L226.9,417.82C227.728,418.368 228.697,418.664 229.69,418.67L260.51,418.67L264.11,415.05L229.69,415.05Z" style="fill:rgb(26,26,26);fill-rule:nonzero;"/>
            </g>
        </g>
        <g id="Menu_Key">
            <path d="M448.92,280.37C448.92,290.689 440.429,299.18 430.11,299.18C419.791,299.18 411.3,290.689 411.3,280.37C411.3,270.051 419.791,261.56 430.11,261.56C430.117,261.56 430.123,261.56 430.13,261.56C440.441,261.571 448.92,270.059 448.92,280.37Z" style="fill:rgb(26,22,21);fill-rule:nonzero;"/>
            <g>
                <path d="M446.23,280.37C446.23,289.208 438.958,296.48 430.12,296.48C421.282,296.48 414.01,289.208 414.01,280.37C414.01,271.532 421.282,264.26 430.12,264.26C430.123,264.26 430.127,264.26 430.13,264.26C438.964,264.265 446.23,271.536 446.23,280.37Z" style="fill-rule:nonzero;stroke:black;stroke-width:1px;"/>
                <g>
                    <rect x="422.93" y="275.74" width="14.36" height="1.55" style="fill:rgb(109,107,108);"/>
                    <rect x="422.93" y="279.66" width="14.36" height="1.55" style="fill:rgb(109,107,108);"/>
                    <rect x="422.93" y="283.47" width="14.36" height="1.53" style="fill:rgb(109,107,108);"/>
                </g>
            </g>
        </g>
        <g id="Switcher_Key">
            <path d="M340.94,280.37C340.94,290.689 332.449,299.18 322.13,299.18C311.811,299.18 303.32,290.689 303.32,280.37C303.32,270.055 311.805,261.565 322.12,261.56C322.123,261.56 322.127,261.56 322.13,261.56C332.449,261.56 340.94,270.051 340.94,280.37L340.94,280.37Z" style="fill:rgb(26,22,21);fill-rule:nonzero;"/>
            <g>
                <path d="M338.22,280.37C338.215,289.198 330.948,296.46 322.12,296.46C313.288,296.46 306.02,289.192 306.02,280.36C306.02,271.528 313.288,264.26 322.12,264.26C322.123,264.26 322.127,264.26 322.13,264.26C330.957,264.26 338.22,271.523 338.22,280.35C338.22,280.357 338.22,280.363 338.22,280.37Z" style="fill-rule:nonzero;stroke:black;stroke-width:1px;"/>
                <g>
                    <path d="M319.6,280.27L316.57,280.27L316.57,276.48L322.04,276.48L322.04,277.8L323.84,277.8L323.84,274.74L314.95,274.74L314.95,282.13L319.6,282.13L319.6,280.27Z" style="fill:rgb(109,107,108);fill-rule:nonzero;"/>
                    <path d="M320.35,278.43L320.35,286L329.35,286L329.35,278.42L320.35,278.43ZM327.51,284.21L322,284.21L322,280.26L327.47,280.26L327.51,284.21Z" style="fill:rgb(109,107,108);fill-rule:nonzero;"/>
                </g>
            </g>
        </g>
        <g id="Left_Stick">
            <path d="M185.47,351.49C148.344,351.479 117.8,320.926 117.8,283.8C117.8,246.666 148.356,216.11 185.49,216.11C222.624,216.11 253.18,246.666 253.18,283.8C253.136,320.925 222.595,351.457 185.47,351.49Z" style="fill:rgb(8,8,8);fill-rule:nonzero;stroke:rgb(20,12,12);stroke-width:1px;"/>
            <path d="M241.57,279.86C241.57,310.636 216.246,335.96 185.47,335.96C154.694,335.96 129.37,310.636 129.37,279.86C129.37,249.084 154.694,223.76 185.47,223.76C185.473,223.76 185.477,223.76 185.48,223.76C216.25,223.76 241.57,249.08 241.57,279.85C241.57,279.853 241.57,279.857 241.57,279.86Z" style="fill-rule:nonzero;stroke:rgb(18,11,11);stroke-width:1px;"/>
        </g>
        <g id="Right_Stick">
            <path d="M473,465.46C435.865,465.455 405.31,434.895 405.31,397.76C405.31,360.621 435.871,330.06 473.01,330.06C510.149,330.06 540.71,360.621 540.71,397.76C540.71,397.767 540.71,397.773 540.71,397.78C540.661,434.901 510.121,465.427 473,465.46Z" style="fill:rgb(8,8,8);fill-rule:nonzero;stroke:rgb(20,12,12);stroke-width:1px;"/>
            <path d="M529.15,393.82L529.15,393.83C529.15,424.606 503.826,449.93 473.05,449.93C442.274,449.93 416.95,424.606 416.95,393.83C416.95,363.073 442.243,337.757 473,337.73C473.02,337.73 473.04,337.73 473.06,337.73C503.83,337.73 529.15,363.05 529.15,393.82Z" style="fill-rule:nonzero;stroke:rgb(18,11,11);stroke-width:1px;"/>
        </g>
        <g id="Button_Base">
            <g id="A">
                <path d="M566.76,355.27C552.951,355.248 541.6,343.879 541.6,330.07C541.6,316.246 552.976,304.87 566.8,304.87C580.624,304.87 592,316.246 592,330.07C591.989,343.898 580.608,355.27 566.78,355.27C566.773,355.27 566.767,355.27 566.76,355.27Z" style="fill-rule:nonzero;"/>
                <path d="M566.76,306.38C566.763,306.38 566.767,306.38 566.77,306.38C579.771,306.38 590.47,317.079 590.47,330.08C590.47,343.081 579.771,353.78 566.77,353.78C553.769,353.78 543.07,343.081 543.07,330.08C543.07,330.077 543.07,330.073 543.07,330.07C543.07,317.074 553.764,306.38 566.76,306.38M566.76,303.38C552.117,303.385 540.07,315.437 540.07,330.08C540.07,344.727 552.123,356.78 566.77,356.78C581.417,356.78 593.47,344.727 593.47,330.08C593.47,330.077 593.47,330.073 593.47,330.07C593.454,315.427 581.403,303.385 566.76,303.38Z" style="fill:rgb(26,22,21);fill-rule:nonzero;"/>
            </g>
            <g id="Y">
                <path d="M566.76,254.2C552.951,254.178 541.6,242.809 541.6,229C541.6,215.176 552.976,203.8 566.8,203.8C580.624,203.8 592,215.176 592,229C591.984,242.833 580.593,254.205 566.76,254.2Z" style="fill-rule:nonzero;"/>
                <path d="M566.76,205.3C566.763,205.3 566.767,205.3 566.77,205.3C579.771,205.3 590.47,215.999 590.47,229C590.47,242.001 579.771,252.7 566.77,252.7C553.769,252.7 543.07,242.001 543.07,229C543.075,216.006 553.766,205.315 566.76,205.31M566.76,202.31C552.117,202.315 540.07,214.367 540.07,229.01C540.07,243.657 552.123,255.71 566.77,255.71C581.417,255.71 593.47,243.657 593.47,229.01C593.47,229.007 593.47,229.003 593.47,229C593.454,214.357 581.403,202.315 566.76,202.31Z" style="fill:rgb(26,22,21);fill-rule:nonzero;"/>
            </g>
            <g id="B">
                <path d="M617.3,304.73C603.476,304.73 592.1,293.354 592.1,279.53C592.1,265.706 603.476,254.33 617.3,254.33C631.124,254.33 642.5,265.706 642.5,279.53C642.484,293.348 631.118,304.714 617.3,304.73Z" style="fill-rule:nonzero;"/>
                <path d="M617.3,255.84C617.303,255.84 617.307,255.84 617.31,255.84C630.311,255.84 641.01,266.539 641.01,279.54C641.01,292.541 630.311,303.24 617.31,303.24C604.309,303.24 593.61,292.541 593.61,279.54L593.61,279.52C593.61,266.53 604.3,255.84 617.29,255.84C617.293,255.84 617.297,255.84 617.3,255.84M617.3,252.84C602.653,252.84 590.6,264.893 590.6,279.54C590.6,294.187 602.653,306.24 617.3,306.24C631.947,306.24 644,294.187 644,279.54C644,279.537 644,279.533 644,279.53C643.984,264.891 631.939,252.851 617.3,252.84Z" style="fill:rgb(26,22,21);fill-rule:nonzero;"/>
            </g>
            <g id="X">
                <path d="M516.22,304.73C502.399,304.725 491.03,293.351 491.03,279.53C491.03,265.706 502.406,254.33 516.23,254.33C530.054,254.33 541.43,265.706 541.43,279.53C541.414,293.352 530.042,304.719 516.22,304.73Z" style="fill-rule:nonzero;"/>
                <path d="M516.22,255.84C516.223,255.84 516.227,255.84 516.23,255.84C529.231,255.84 539.93,266.539 539.93,279.54C539.93,292.541 529.231,303.24 516.23,303.24C503.229,303.24 492.53,292.541 492.53,279.54C492.53,279.537 492.53,279.533 492.53,279.53C492.53,266.534 503.224,255.84 516.22,255.84M516.22,252.84C501.577,252.845 489.53,264.897 489.53,279.54C489.53,294.187 501.583,306.24 516.23,306.24C530.877,306.24 542.93,294.187 542.93,279.54C542.93,279.537 542.93,279.533 542.93,279.53C542.914,264.887 530.863,252.845 516.22,252.84Z" style="fill:rgb(26,22,21);fill-rule:nonzero;"/>
            </g>
        </g>
        <g>
            <g id="RB">
                <path d="M642.55,192C633.55,184.06 636.91,175.84 631.08,168.15C631.32,168.48 631.57,168.8 631.78,169.15C631.78,169.15 535.25,127.09 510.98,134.67C495.41,139.54 483.74,150.01 478.15,152.9L494,182.42C505.17,169.74 516,159.42 525.06,157.66C545.1,153.81 609,174 642.56,192L642.55,192Z" style="fill:rgb(26,26,26);fill-rule:nonzero;"/>
                <path d="M511,134.62C535.27,127.03 631.77,169.08 631.8,169.09C631.59,168.76 631.34,168.44 631.1,168.09L631,168C630.9,167.86 630.82,167.75 630.71,167.62L630.57,167.46L630.3,167.13C630.242,167.082 630.188,167.028 630.14,166.97C630.06,166.858 629.966,166.758 629.86,166.67L629.7,166.47C629.598,166.378 629.502,166.282 629.41,166.18C629.348,166.108 629.282,166.042 629.21,165.98C629.104,165.894 629.006,165.796 628.92,165.69L628.69,165.51C628.605,165.402 628.504,165.307 628.39,165.23L628.16,165.02C628.05,164.92 627.95,164.85 627.85,164.75L627.58,164.53L627.25,164.27C627.166,164.199 627.075,164.135 626.98,164.08C626.86,163.98 626.76,163.89 626.63,163.8C626.534,163.742 626.443,163.675 626.36,163.6L625.98,163.34L625.69,163.12C625.547,163.044 625.41,162.957 625.28,162.86L624.98,162.66C624.825,162.571 624.675,162.475 624.53,162.37C624.424,162.325 624.323,162.268 624.23,162.2C624.06,162.089 623.883,161.989 623.7,161.9L623.45,161.73C623.17,161.58 622.89,161.43 622.61,161.26C604.33,151.35 550.61,124.26 508.39,129.89C500.78,130.89 486.76,142.23 474.57,146.17L478.16,152.84C483.74,150 495.41,139.48 511,134.62Z" style="fill:rgb(13,13,13);fill-rule:nonzero;"/>
            </g>
            <g id="LB">
                <path d="M241.62,129.89C199.38,124.26 145.69,151.35 127.4,161.26C127.13,161.43 126.85,161.57 126.58,161.73L126.33,161.89C126.144,161.978 125.963,162.079 125.79,162.19C125.702,162.26 125.604,162.318 125.5,162.36L125.05,162.66L124.76,162.84C124.628,162.942 124.487,163.032 124.34,163.11L124.08,163.31L123.68,163.58C123.602,163.65 123.518,163.713 123.43,163.77C123.297,163.859 123.17,163.955 123.05,164.06C122.964,164.112 122.884,164.172 122.81,164.24C122.692,164.34 122.568,164.433 122.44,164.52L122.22,164.71C122.1,164.82 121.99,164.9 121.87,165L121.68,165.19C121.555,165.276 121.441,165.377 121.34,165.49C121.284,165.548 121.22,165.599 121.15,165.64C121.03,165.76 120.94,165.87 120.82,165.97L120.66,166.12C120.56,166.24 120.45,166.35 120.33,166.45L120.21,166.61C120.093,166.717 119.986,166.834 119.89,166.96L119.78,167.08C119.665,167.196 119.558,167.319 119.46,167.45L119.37,167.55C119.25,167.7 119.15,167.82 119.05,167.96L119,168C118.89,168.14 118.79,168.29 118.68,168.44L118.68,168.49C118.55,168.64 118.45,168.81 118.34,168.96C118.34,168.96 216.03,126.96 240.34,134.58C255.88,139.45 267.56,149.91 273.14,152.8L276.56,146.46C264.09,142.91 249.47,130.92 241.62,129.89Z" style="fill:rgb(13,13,13);fill-rule:nonzero;"/>
                <g>
                    <path d="M273.57,153.1L274.03,153.28L273.57,153.1Z" style="fill:rgb(26,26,26);fill-rule:nonzero;"/>
                    <path d="M273.1,152.85C267.52,149.96 255.83,139.49 240.28,134.62C216.07,127.06 119,168.71 118.3,169C113.3,176.44 116.09,184.33 107.46,192L107.4,192C140.56,174.13 206.57,153.89 226.15,157.67C235.28,159.43 246.06,169.75 257.23,182.43L273.08,152.85L273.1,152.85Z" style="fill:rgb(26,26,26);fill-rule:nonzero;"/>
                    <path d="M273.1,152.85C273.27,152.93 273.41,153.02 273.57,153.1C273.41,153 273.27,152.93 273.1,152.85Z" style="fill-rule:nonzero;"/>
                </g>
                <path d="M258,183.23C258.23,183.52 258.47,183.79 258.72,184.06L275.11,153.53L278.6,146.99C278.25,146.93 277.91,146.86 277.6,146.77C277.29,146.68 276.93,146.58 276.6,146.5L273.17,152.84L257.32,182.42C257.56,182.69 257.79,182.96 258.05,183.23" style="fill-rule:nonzero;"/>
            </g>
            <path d="M478.15,152.84L474.56,146.17C474.23,146.26 473.9,146.38 473.56,146.48L472.56,146.75L476.2,153.53L492.58,184.07C492.82,183.79 493.08,183.53 493.31,183.23C493.54,182.93 493.8,182.69 494.03,182.42L478.15,152.84Z" style="fill-rule:nonzero;"/>
        </g>
        <g>
            <g>
                <path d="M549.08,5.47C548.68,5.15 548.28,4.85 547.87,4.57L545.52,114.57L598.8,121.81C586.73,5 555.82,10.76 549.08,5.47Z" style="fill:rgb(26,26,26);fill-rule:nonzero;"/>
                <path d="M522,0.14C511.22,0.55 510,11.58 509.86,15.33L509.86,16.56C511.624,47.565 511.624,78.645 509.86,109.65C519.79,111.94 548.4,114.95 548.4,114.95C548.4,114.95 548.4,94.04 549.08,64.35C549.88,26.85 547.87,4.57 547.87,4.57C541.45,0.09 534.3,-0.31 522,0.14Z" style="fill:rgb(20,20,20);fill-rule:nonzero;"/>
            </g>
            <g>
                <path d="M201,5.47C201.4,5.15 201.8,4.85 202.21,4.57L204.53,114.57L151.28,121.81C163.35,5 194.24,10.76 201,5.47Z" style="fill:rgb(26,26,26);fill-rule:nonzero;"/>
                <path d="M228,0.14C238.84,0.55 240.07,11.58 240.19,15.33L240.19,16.56C238.426,47.565 238.426,78.645 240.19,109.65C230.27,111.94 201.66,114.95 201.66,114.95C201.66,114.95 201.62,94 201,64.35C200.18,26.85 202.21,4.57 202.21,4.57C208.62,0.09 215.77,-0.31 228,0.14Z" style="fill:rgb(20,20,20);fill-rule:nonzero;"/>
            </g>
        </g>
    </g>
</svg>
