<?xml version="1.0" encoding="UTF-8" standalone="no"?>
<!DOCTYPE svg PUBLIC "-//W3C//DTD SVG 1.1//EN" "http://www.w3.org/Graphics/SVG/1.1/DTD/svg11.dtd">
<svg width="750" height="630.46" viewBox="0 0 750 630.46" version="1.1" xmlns="http://www.w3.org/2000/svg" xmlns:xlink="http://www.w3.org/1999/xlink" xml:space="preserve" xmlns:serif="http://www.serif.com/" style="fill-rule:evenodd;clip-rule:evenodd;stroke-linejoin:round;stroke-miterlimit:2;">
    <g id="Layer_1-2">
        <path d="M107.46,191.96L107.46,193.52" style="fill:none;fill-rule:nonzero;"/>
        <path d="M642.55,191.47L642.55,192.42" style="fill:none;fill-rule:nonzero;"/>
        <g id="Dpad">
            <g>
                <g>
                    <path d="M277.67,452.7C270.54,452.7 264.93,451.38 264.62,449.62C264.615,449.57 264.615,449.52 264.62,449.47L264.62,415.05C264.62,414.776 264.394,414.55 264.12,414.55L229.69,414.55C227.87,414.55 226.44,408.81 226.44,401.49C226.44,394.17 227.87,388.43 229.69,388.43L264.11,388.43C264.384,388.43 264.61,388.204 264.61,387.93L264.61,353.51C264.605,353.463 264.605,353.417 264.61,353.37L264.67,353.14L264.75,353.01C265.25,352.2 266.86,351.49 269.29,351.01L270.18,350.83C270.511,350.769 270.845,350.726 271.18,350.7L271.34,350.7L272.24,350.59L273.24,350.48L274.24,350.4L276.6,350.32L277.65,350.32C284.98,350.32 290.71,351.74 290.71,353.55L290.71,387.97C290.71,388.244 290.936,388.47 291.21,388.47L325.62,388.47C327.43,388.47 328.85,394.21 328.85,401.53C328.85,408.85 327.43,414.59 325.62,414.59L291.24,414.59C290.966,414.59 290.74,414.816 290.74,415.09L290.74,449.51C290.745,449.56 290.745,449.61 290.74,449.66C290.42,451.38 284.8,452.7 277.67,452.7Z" style="fill:rgb(8,8,8);fill-opacity:0.33;fill-rule:nonzero;"/>
                    <path d="M277.67,350.78C285.76,350.78 290.23,352.39 290.23,353.51L290.23,387.94C290.23,388.489 290.681,388.94 291.23,388.94L325.65,388.94C326.79,388.94 328.38,393.71 328.38,401.49C328.38,409.27 326.79,414.05 325.65,414.05L291.23,414.05C290.681,414.05 290.23,414.501 290.23,415.05L290.23,449.54C290.03,450.65 285.56,452.2 277.67,452.2C269.78,452.2 265.31,450.65 265.11,449.54L265.11,415.05C265.11,414.501 264.659,414.05 264.11,414.05L229.69,414.05C228.54,414.05 226.94,409.27 226.94,401.49C226.94,393.71 228.54,388.93 229.69,388.93L264.11,388.93C264.659,388.93 265.11,388.479 265.11,387.93L265.11,353.47C265.114,353.423 265.114,353.377 265.11,353.33L265.11,353.28C265.26,353.03 266.02,352.16 269.3,351.52L269.36,351.52C269.63,351.45 269.91,351.4 270.19,351.35L270.27,351.35C270.534,351.297 270.801,351.261 271.07,351.24L271.25,351.24L272.17,351.12L273.17,351.01L274.17,350.93L277.58,350.93M277.58,349.93L274.09,349.93L273.09,350.01L272.09,350.12L271.09,350.25L271.04,350.25C270.725,350.277 270.411,350.32 270.1,350.38L270.02,350.38L269.14,350.56C266.71,351.04 264.89,351.78 264.28,352.79C264.232,352.835 264.195,352.889 264.17,352.95C264.165,353.01 264.165,353.07 264.17,353.13C264.166,353.177 264.166,353.223 264.17,353.27C264.161,353.343 264.161,353.417 264.17,353.49L264.17,387.92L229.69,387.92C224.69,387.92 224.69,415.03 229.69,415.03L264.11,415.03L264.11,449.45C264.1,449.53 264.1,449.61 264.11,449.69C264.51,452.02 271.11,453.18 277.65,453.18C284.19,453.18 290.78,452.02 291.19,449.69C291.195,449.61 291.195,449.53 291.19,449.45L291.19,415.05L325.61,415.05C330.61,415.05 330.61,387.94 325.61,387.94L291.23,387.94L291.23,353.51C291.23,351.01 284.44,349.78 277.67,349.78L277.58,349.93Z" style="fill:rgb(18,11,11);fill-rule:nonzero;"/>
                </g>
                <path d="M264.11,387.94L260.51,384.31L229.69,384.31C228.7,384.316 227.734,384.612 226.91,385.16L229.69,387.94L264.11,387.94Z" style="fill:rgb(36,36,36);fill-rule:nonzero;"/>
                <path d="M229.69,387.94L226.9,385.16C225.54,386.09 224.23,387.9 223.38,391.3C222.007,398.024 222.007,404.956 223.38,411.68C224.23,415.08 225.54,416.89 226.9,417.82L229.69,415.05C224.69,415.05 224.69,387.94 229.69,387.94Z" style="fill:rgb(41,41,41);fill-rule:nonzero;"/>
                <path d="M269.2,350.52L270.09,350.34L270.16,350.34C270.47,350.275 270.784,350.232 271.1,350.21L271.16,350.21L272.16,350.08L273.16,349.97L273.21,349.97L274.21,349.89L277.68,349.89C284.45,349.89 291.25,351.12 291.25,353.62L294,350.85C293.1,349.48 291.29,348.14 287.86,347.32C281.143,345.947 274.217,345.947 267.5,347.32C264.56,348.04 262.79,349.12 261.78,350.32L264.35,352.89C265,351.74 266.77,351 269.2,350.52Z" style="fill:rgb(36,36,36);fill-rule:nonzero;"/>
                <path d="M325.65,387.94L328.41,385.16C327.594,384.611 326.633,384.316 325.65,384.31L294.84,384.31L291.23,387.94L325.65,387.94Z" style="fill:rgb(25,25,25);fill-rule:nonzero;"/>
                <path d="M291.23,353.51L291.23,387.93L294.83,384.31L294.83,353.51C294.826,352.523 294.53,351.559 293.98,350.74L291.22,353.51L291.23,353.51Z" style="fill:rgb(28,28,28);fill-rule:nonzero;"/>
                <path d="M264.11,353.51C264.106,353.437 264.106,353.363 264.11,353.29L264.11,352.97C264.141,352.91 264.178,352.853 264.22,352.8L261.65,350.23C260.834,351.15 260.385,352.34 260.39,353.57L260.39,384.37L263.99,387.99L264.11,353.51Z" style="fill:rgb(41,41,41);fill-rule:nonzero;"/>
                <path d="M325.65,415.05L291.23,415.05L294.83,418.67L327.15,418.67L327.49,418.32C327.812,418.186 328.12,418.022 328.41,417.83L325.65,415.05Z" style="fill:rgb(23,23,23);fill-rule:nonzero;"/>
                <path d="M291.23,449.47L293.99,452.24C294.537,451.42 294.829,450.456 294.83,449.47L294.83,418.67L291.23,415.05L291.23,449.47Z" style="fill:rgb(15,15,15);fill-rule:nonzero;"/>
                <path d="M332,391.3C331.16,387.9 329.82,386.09 328.45,385.16L325.69,387.93C330.69,387.93 330.69,415.05 325.69,415.05L328.46,417.83C329.82,416.9 331.16,415.08 332,411.68C332.72,408.332 333.055,404.914 333,401.49C333.051,398.067 332.715,394.648 332,391.3Z" style="fill:rgb(15,15,15);fill-rule:nonzero;"/>
                <path d="M291.21,449.71C290.81,452.04 284.21,453.2 277.67,453.2C271.13,453.2 264.54,452.04 264.13,449.71C264.126,449.63 264.126,449.55 264.13,449.47L261.34,452.24C262.27,453.61 264.09,454.95 267.51,455.77C274.226,457.157 281.154,457.157 287.87,455.77C291.3,454.95 293.11,453.61 294.01,452.24L291.26,449.47C291.23,449.54 291.23,449.62 291.21,449.71Z" style="fill:rgb(23,23,23);fill-rule:nonzero;"/>
                <path d="M264.11,449.47L264.11,415.05L260.51,418.67L260.51,450.32L260.6,450.55C260.736,451.152 260.979,451.725 261.32,452.24L264.11,449.47Z" style="fill:rgb(28,28,28);fill-rule:nonzero;"/>
                <path d="M229.69,415.05L226.9,417.82C227.728,418.368 228.697,418.664 229.69,418.67L260.51,418.67L264.11,415.05L229.69,415.05Z" style="fill:rgb(26,26,26);fill-rule:nonzero;"/>
            </g>
        </g>
        <g id="Menu_Key">
            <path d="M448.92,280.37C448.92,290.689 440.429,299.18 430.11,299.18C419.791,299.18 411.3,290.689 411.3,280.37C411.3,270.051 419.791,261.56 430.11,261.56C430.117,261.56 430.123,261.56 430.13,261.56C440.441,261.571 448.92,270.059 448.92,280.37Z" style="fill:rgb(8,8,8);fill-opacity:0.33;fill-rule:nonzero;"/>
            <path d="M448.92,280.37C448.92,290.689 440.429,299.18 430.11,299.18C419.791,299.18 411.3,290.689 411.3,280.37C411.3,270.051 419.791,261.56 430.11,261.56C430.117,261.56 430.123,261.56 430.13,261.56C440.441,261.571 448.92,270.059 448.92,280.37ZM446.92,280.37C446.92,289.592 439.332,297.18 430.11,297.18C420.888,297.18 413.3,289.592 413.3,280.37C413.3,271.148 420.888,263.56 430.11,263.56C430.116,263.56 430.122,263.56 430.128,263.56C439.343,263.57 446.92,271.155 446.92,280.37Z" style="fill:rgb(20,12,12);"/>
            <g>
                <g>
                    <rect x="422.93" y="275.74" width="14.36" height="1.55" style="fill:rgb(109,107,108);"/>
                    <rect x="422.93" y="279.66" width="14.36" height="1.55" style="fill:rgb(109,107,108);"/>
                    <rect x="422.93" y="283.47" width="14.36" height="1.53" style="fill:rgb(109,107,108);"/>
                </g>
            </g>
        </g>
        <g id="Switcher_Key">
            <path d="M340.94,280.37C340.94,290.689 332.449,299.18 322.13,299.18C311.811,299.18 303.32,290.689 303.32,280.37C303.32,270.055 311.805,261.565 322.12,261.56C322.123,261.56 322.127,261.56 322.13,261.56C332.449,261.56 340.94,270.051 340.94,280.37L340.94,280.37Z" style="fill:rgb(8,8,8);fill-opacity:0.33;fill-rule:nonzero;"/>
            <path d="M340.843,282.273C339.877,291.712 331.807,299.18 322.13,299.18C311.811,299.18 303.32,290.689 303.32,280.37C303.32,270.055 311.805,261.565 322.12,261.56C322.123,261.56 322.127,261.56 322.13,261.56C332.449,261.56 340.94,270.051 340.94,280.37L340.94,280.37C340.94,281.012 340.907,281.647 340.843,282.273L338.94,280.37C338.94,271.148 331.352,263.56 322.13,263.56C322.127,263.56 322.124,263.56 322.121,263.56C312.903,263.565 305.32,271.152 305.32,280.37C305.32,289.592 312.908,297.18 322.13,297.18C331.352,297.18 338.94,289.592 338.94,280.37L340.843,282.273Z" style="fill:rgb(20,12,12);"/>
            <g>
                <g>
                    <path d="M319.6,280.27L316.57,280.27L316.57,276.48L322.04,276.48L322.04,277.8L323.84,277.8L323.84,274.74L314.95,274.74L314.95,282.13L319.6,282.13L319.6,280.27Z" style="fill:rgb(109,107,108);fill-rule:nonzero;"/>
                    <path d="M320.35,278.43L320.35,286L329.35,286L329.35,278.42L320.35,278.43ZM327.51,284.21L322,284.21L322,280.26L327.47,280.26L327.51,284.21Z" style="fill:rgb(109,107,108);fill-rule:nonzero;"/>
                </g>
            </g>
        </g>
        <g id="Left_Stick">
            <path d="M185.47,351.49C148.344,351.479 117.8,320.926 117.8,283.8C117.8,246.666 148.356,216.11 185.49,216.11C222.624,216.11 253.18,246.666 253.18,283.8C253.136,320.925 222.595,351.457 185.47,351.49Z" style="fill:rgb(8,8,8);fill-opacity:0.33;fill-rule:nonzero;"/>
            <path d="M185.47,351.49C148.344,351.479 117.8,320.926 117.8,283.8C117.8,246.666 148.356,216.11 185.49,216.11C222.624,216.11 253.18,246.666 253.18,283.8C253.136,320.925 222.595,351.457 185.47,351.49ZM185.469,347.49C150.538,347.478 121.8,318.731 121.8,283.8C121.8,248.861 150.551,220.11 185.49,220.11C220.429,220.11 249.179,248.859 249.18,283.798C249.137,318.729 220.4,347.458 185.469,347.49L185.469,347.49Z" style="fill:rgb(20,12,12);"/>
        </g>
        <g id="Right_Stick">
            <path d="M473,465.46C435.865,465.455 405.31,434.895 405.31,397.76C405.31,360.621 435.871,330.06 473.01,330.06C510.149,330.06 540.71,360.621 540.71,397.76C540.71,397.767 540.71,397.773 540.71,397.78C540.661,434.901 510.121,465.427 473,465.46Z" style="fill:rgb(8,8,8);fill-opacity:0.33;fill-rule:nonzero;"/>
            <path d="M473,465.46C435.865,465.455 405.31,434.895 405.31,397.76C405.31,360.621 435.871,330.06 473.01,330.06C510.149,330.06 540.71,360.621 540.71,397.76C540.71,397.767 540.71,397.773 540.71,397.78C540.661,434.901 510.121,465.427 473,465.46ZM472.999,461.46C438.058,461.454 409.31,432.701 409.31,397.76C409.31,362.815 438.065,334.06 473.01,334.06C507.955,334.06 536.71,362.815 536.71,397.76L536.71,397.776C536.663,432.705 507.927,461.428 472.999,461.46Z" style="fill:rgb(20,12,12);"/>
        </g>
        <g>
            <g id="RB">
                <path d="M474.57,146.17L478.15,152.9L494,182.42C505.17,169.74 516,159.42 525.06,157.66C545.096,153.811 608.974,173.992 642.535,191.987L642.55,192L642.56,192L642.535,191.987C633.884,184.342 636.677,176.439 631.686,169L631.665,168.968C631.487,168.685 631.297,168.377 631.1,168.09L631,168C630.9,167.86 630.82,167.75 630.71,167.62L630.57,167.46L630.3,167.13C630.242,167.082 630.188,167.028 630.14,166.97C630.06,166.858 629.966,166.758 629.86,166.67L629.7,166.47L629.21,165.98C629.104,165.894 629.006,165.796 628.92,165.69L628.69,165.51C628.605,165.402 628.504,165.307 628.39,165.23L628.16,165.02C628.05,164.92 627.95,164.85 627.85,164.75L627.58,164.53L627.25,164.27C627.166,164.199 627.075,164.135 626.98,164.08C626.86,163.98 626.76,163.89 626.63,163.8C626.534,163.742 626.443,163.675 626.36,163.6L625.98,163.34L625.69,163.12C625.547,163.044 625.41,162.957 625.28,162.86L624.98,162.66C624.825,162.571 624.675,162.475 624.53,162.37C624.424,162.325 624.323,162.268 624.23,162.2C624.06,162.089 623.883,161.989 623.7,161.9L623.45,161.73C623.17,161.58 622.89,161.43 622.61,161.26C604.33,151.35 550.61,124.26 508.39,129.89C500.78,130.89 486.76,142.23 474.57,146.17ZM631.475,168.692L631.394,168.577C631.487,168.705 631.579,168.835 631.665,168.968L631.674,168.981L631.686,169C631.718,169.049 631.75,169.099 631.78,169.15L631.674,168.981L631.6,168.872C631.559,168.812 631.517,168.752 631.475,168.692Z" style="fill:rgb(8,8,8);fill-opacity:0.33;fill-rule:nonzero;"/>
                <path d="M474.57,146.17L478.15,152.9L494,182.42C505.17,169.74 516,159.42 525.06,157.66C545.096,153.811 608.974,173.992 642.535,191.987L642.55,192L642.56,192L642.535,191.987C633.884,184.342 636.677,176.439 631.686,169L631.665,168.968C631.487,168.685 631.297,168.377 631.1,168.09L631,168C630.9,167.86 630.82,167.75 630.71,167.62L630.57,167.46L630.3,167.13C630.242,167.082 630.188,167.028 630.14,166.97C630.06,166.858 629.966,166.758 629.86,166.67L629.7,166.47L629.21,165.98C629.104,165.894 629.006,165.796 628.92,165.69L628.69,165.51C628.605,165.402 628.504,165.307 628.39,165.23L628.16,165.02C628.05,164.92 627.95,164.85 627.85,164.75L627.58,164.53L627.25,164.27C627.166,164.199 627.075,164.135 626.98,164.08C626.86,163.98 626.76,163.89 626.63,163.8C626.534,163.742 626.443,163.675 626.36,163.6L625.98,163.34L625.69,163.12C625.547,163.044 625.41,162.957 625.28,162.86L624.98,162.66C624.825,162.571 624.675,162.475 624.53,162.37C624.424,162.325 624.323,162.268 624.23,162.2C624.06,162.089 623.883,161.989 623.7,161.9L623.45,161.73C623.17,161.58 622.89,161.43 622.61,161.26C604.33,151.35 550.61,124.26 508.39,129.89C500.78,130.89 486.76,142.23 474.57,146.17ZM627.732,168.817C627.789,168.886 627.853,168.95 627.922,169.008L628.028,169.095L628.035,169.099L627.154,168.217C627.041,168.119 626.933,168.015 626.831,167.909C626.831,167.909 626.825,167.906 626.825,167.906L627.03,167.977L628.288,168.83L628.522,168.942L627.239,168.048L627.03,167.977L626.685,167.743C626.549,167.65 626.427,167.539 626.323,167.411L626.119,167.268C626.119,167.268 628.16,168.057 628.16,168.057L626.117,167.267C625.973,167.136 625.846,167.038 625.715,166.909C625.715,166.909 625.669,166.89 625.669,166.89L627.234,167.444L627.111,167.374L625.398,166.67L625.461,166.709L625.236,166.579L625.036,166.413C624.999,166.382 624.969,166.35 624.934,166.321C624.732,166.19 624.54,166.044 624.36,165.885C624.36,165.885 624.276,165.853 624.276,165.853L624.48,165.916L624.262,165.8C623.984,165.652 623.717,165.483 623.465,165.294L623.476,165.298L622.994,164.999C622.83,164.913 622.672,164.816 622.524,164.714C622.477,164.684 622.427,164.658 622.377,164.633L623.019,164.944L622.016,164.407C621.711,164.243 621.407,164.079 621.101,163.896C603.051,154.115 550.296,127.365 508.788,132.9L508.786,132.901C506.017,133.264 502.354,135.223 498.199,137.563C492.223,140.93 485.403,145.142 478.884,147.814L480.828,151.469C480.828,151.469 494.625,177.165 494.625,177.165C500.48,170.718 506.217,165.062 511.619,161.047C516.141,157.685 520.482,155.456 524.484,154.679L524.487,154.678C530.753,153.474 541.139,154.435 553.543,157.003C577.809,162.025 610.083,173.045 633.694,184.165C633.346,183.171 633.059,182.176 632.8,181.182C631.879,177.651 631.454,174.116 629.179,170.714L629.176,170.712C629.165,170.693 629.153,170.674 629.141,170.655L629.77,170.997L629.538,170.859L629.127,170.634L629.474,170.822L629.121,170.625L629.105,170.601L629.104,170.601L628.939,170.364L628.965,170.377L628.951,170.356L628.921,170.339L628.95,170.354C628.836,170.172 628.718,169.985 628.596,169.807L628.695,169.86L628.667,169.836L628.529,169.765C628.481,169.698 628.445,169.644 628.392,169.581L628.399,169.585L628.29,169.465L628.289,169.464L628.29,169.465L628.078,169.209C627.981,169.113 627.889,169.012 627.802,168.907L627.732,168.817ZM630.695,170.649L630.71,170.657L630.695,170.649ZM630.789,170.526L630.973,170.651L630.973,170.649L630.791,170.523L630.789,170.526ZM630.669,170.445L630.775,170.517L630.777,170.513L630.675,170.442L630.669,170.445ZM630.352,170.23L630.571,170.379L630.571,170.369L630.327,170.199L630.352,170.23ZM630.184,170.112L630.238,170.137L630.163,170.085L630.184,170.112ZM631.633,168.923L631.78,169.15C631.75,169.099 631.718,169.049 631.686,169L631.633,168.923L631.6,168.872C631.559,168.812 631.517,168.752 631.475,168.692L631.394,168.577L631.633,168.923ZM626.323,167.411L626.3,167.384L628.69,168.547L627.239,168.048L626.323,167.411Z" style="fill:rgb(20,12,12);"/>
            </g>
            <g id="LB">
                <g>
                    <path d="M273.57,153.1L274.03,153.28L273.57,153.1Z" style="fill:rgb(26,26,26);fill-rule:nonzero;"/>
                    <path d="M118.387,168.878L118.3,169C113.318,176.414 116.071,184.275 107.55,191.919L107.4,192L107.46,192L107.55,191.919C140.758,174.069 206.599,153.896 226.15,157.67C235.28,159.43 246.06,169.75 257.23,182.43L273.08,152.85L276.56,146.46C264.09,142.91 249.47,130.92 241.62,129.89C199.38,124.26 145.69,151.35 127.4,161.26C127.13,161.43 126.85,161.57 126.58,161.73L126.33,161.89C126.144,161.978 125.963,162.079 125.79,162.19C125.702,162.26 125.604,162.318 125.5,162.36L125.05,162.66L124.76,162.84C124.628,162.942 124.487,163.032 124.34,163.11L124.08,163.31L123.68,163.58L123.05,164.06C122.964,164.112 122.884,164.172 122.81,164.24C122.692,164.34 122.568,164.433 122.44,164.52L122.22,164.71C122.1,164.82 121.99,164.9 121.87,165L121.68,165.19C121.555,165.276 121.441,165.377 121.34,165.49C121.284,165.548 121.22,165.599 121.15,165.64C121.03,165.76 120.94,165.87 120.82,165.97L120.66,166.12C120.56,166.24 120.45,166.35 120.33,166.45L120.21,166.61C120.093,166.717 119.986,166.834 119.89,166.96L119.78,167.08L119.37,167.55C119.25,167.7 119.15,167.82 119.05,167.96L119,168C118.89,168.14 118.79,168.29 118.68,168.44L118.68,168.49C118.583,168.603 118.479,168.749 118.387,168.878Z" style="fill:rgb(8,8,8);fill-opacity:0.33;fill-rule:nonzero;"/>
                    <path d="M128.532,160.651L126.264,163.625L126.327,163.854L126.313,163.868L126.248,163.647L126.264,163.625L126.263,163.619L128.53,160.652L127.4,161.26C127.13,161.43 126.85,161.57 126.58,161.73L126.33,161.89C126.168,161.967 126.011,162.052 125.859,162.147L126.263,163.619L126.246,163.641L126.248,163.647L126.087,163.858L126.085,163.851L126.246,163.641L125.815,162.175L125.79,162.19C125.702,162.26 125.604,162.318 125.5,162.36L125.05,162.66L124.76,162.84C124.628,162.942 124.487,163.032 124.34,163.11L124.08,163.31L124.037,163.339L124.634,165.442L124.615,165.459L123.921,163.417L123.696,163.569L124.251,165.8L124.226,165.824L123.505,163.714L123.05,164.06C123.007,164.086 122.965,164.114 122.925,164.144L123.611,166.4L123.605,166.406L122.86,164.198L122.81,164.24C122.692,164.34 122.568,164.433 122.44,164.52L122.22,164.71C122.1,164.82 121.99,164.9 121.87,165L121.703,165.167L122.424,167.514L122.421,167.516L121.58,165.265L121.501,165.33C121.473,165.356 121.446,165.382 121.418,165.408L121.368,165.46L122.206,167.718L122.205,167.719L121.339,165.491C121.283,165.549 121.219,165.599 121.15,165.64L121.04,165.755L121.866,168.036L120.954,165.844C120.912,165.888 120.868,165.93 120.82,165.97L120.66,166.12C120.56,166.24 120.45,166.35 120.33,166.45L120.21,166.61C120.143,166.671 120.079,166.736 120.019,166.804L120.594,168.393L120.58,168.412L119.966,166.865C119.94,166.896 119.915,166.928 119.89,166.96L119.82,167.037L120.436,168.6L120.411,168.635L119.716,167.153L119.55,167.343L120.152,169.004L120.112,169.063L119.521,167.882L119.385,167.533L119.37,167.55C119.25,167.7 119.15,167.82 119.05,167.96L119,168L118.903,168.131L119.638,169.804L119.635,169.808L118.884,168.157C118.816,168.249 118.75,168.344 118.68,168.44L118.68,168.49C118.623,168.556 118.564,168.633 118.507,168.712C118.721,169.611 118.886,170.449 118.959,170.831L118.998,170.906L118.98,170.939L118.984,170.961L118.972,170.953L118.98,170.939L118.959,170.831L118.142,169.242L118.131,169.258L118.945,170.935L118.972,170.953L118.963,170.97L118.945,170.935C118.787,170.826 118.47,170.596 118.107,170.281L117.846,169.711L117.811,169.771L118.041,170.226C117.935,170.133 117.827,170.034 117.717,169.929L117.648,170.045L117.453,170.393L118.3,172.047L117.436,170.425C113.623,177.416 115.527,184.762 107.55,191.919L107.4,192L107.46,192L107.55,191.919C140.758,174.069 206.599,153.896 226.15,157.67C235.28,159.43 246.06,169.75 257.23,182.43L273.08,152.85L276.56,146.46C264.09,142.91 249.47,130.92 241.62,129.89C200.221,124.372 147.822,150.285 128.532,160.651ZM116.303,184.145C116.652,183.143 116.941,182.141 117.201,181.139C118.116,177.617 118.548,174.093 120.829,170.7L118.3,172.047C118.3,172.047 120.86,170.659 120.86,170.659C120.86,170.659 118.387,171.925 118.387,171.925L120.872,170.642C120.908,170.591 120.944,170.53 120.983,170.486L118.68,171.537C118.68,171.537 118.744,171.487 118.854,171.399L120.919,170.352L120.952,170.34L120.958,170.333L121.137,170.242C121.227,170.12 121.306,169.997 121.396,169.883L121.675,169.528L121.53,169.731C121.58,169.66 121.632,169.598 121.689,169.528C121.702,169.512 122.076,169.083 122.076,169.083L121.995,169.12L122.036,169.068L122.133,169.022L122.255,168.863L122.267,168.858L122.415,168.673C122.571,168.537 122.718,168.391 122.856,168.237L123.137,167.964C123.275,167.855 123.408,167.735 123.533,167.606L123.573,167.564C123.552,167.587 123.485,167.646 123.412,167.697L123.277,167.739L123.517,167.451L123.821,167.341C123.979,167.209 124.121,167.101 124.279,166.956L124.266,166.961C124.426,166.848 124.582,166.729 124.733,166.603L124.766,166.583L125.703,165.87L125.774,165.843L125.714,165.861L125.857,165.752C126.115,165.611 126.361,165.45 126.595,165.272L126.649,165.254L126.601,165.267L126.667,165.218L126.74,165.195L127.014,165.013C127.181,164.926 127.347,164.824 127.505,164.712C127.548,164.687 127.592,164.664 127.637,164.642L127.324,164.713L127.583,164.514L127.775,164.45L128.133,164.351C128.399,164.194 128.673,164.052 128.941,163.89C146.992,154.115 199.703,127.377 241.217,132.91L241.221,132.911C244.088,133.287 247.899,135.355 252.219,137.798C258.407,141.297 265.461,145.616 272.15,148.186C272.15,148.186 270.399,151.402 270.399,151.402C270.394,151.411 256.601,177.153 256.601,177.153C250.753,170.712 245.034,165.061 239.635,161.048C235.11,157.686 230.758,155.455 226.727,154.678C220.614,153.498 210.152,154.471 197.576,157.045C172.955,162.082 139.94,173.091 116.303,184.145ZM118.449,171.031L118.638,171.445L118.68,171.487L118.449,171.031ZM121.219,169.265L121.235,169.259L121.439,169.096L121.334,169.134L121.219,169.265ZM121.887,169.138L121.849,169.186L121.952,169.139L121.987,169.091L121.887,169.138ZM122.107,168.854L122.034,168.949L122.109,168.919L122.173,168.83L122.107,168.854ZM122.243,168.805L122.172,168.895L122.255,168.863L122.369,168.714L122.415,168.673L122.662,168.35L122.641,168.358L122.369,168.714L122.28,168.791L122.243,168.805ZM123.264,167.542L123.063,167.806L123.081,167.8L123.283,167.536L123.264,167.542ZM123.492,167.244L123.472,167.27L123.491,167.263L123.509,167.239L123.492,167.244ZM124.335,166.142L124.338,166.151L124.336,166.14L124.335,166.142ZM124.689,165.678L124.692,165.687L124.7,165.676L124.698,165.667L124.689,165.678ZM126.362,164.035L126.554,164.687L126.555,164.686L126.373,164.022L126.362,164.035ZM125.466,164.662L125.494,164.635L126.035,163.925L126.033,163.919L125.466,164.662Z" style="fill:rgb(20,12,12);"/>
                    <path d="M273.1,152.85C273.27,152.93 273.41,153.02 273.57,153.1C273.41,153 273.27,152.93 273.1,152.85Z" style="fill-rule:nonzero;"/>
                </g>
            </g>
        </g>
        <g>
            <g>
                <path d="M548.016,114.909L598.8,121.81C586.73,5 555.82,10.76 549.08,5.47C548.68,5.15 548.28,4.85 547.87,4.57C541.45,0.09 534.3,-0.31 522,0.14C511.22,0.55 510,11.58 509.86,15.33L509.86,16.56C511.624,47.565 511.624,78.645 509.86,109.65C519.113,111.784 544.584,114.543 548.016,114.909Z" style="fill:rgb(8,8,8);fill-opacity:0.33;fill-rule:nonzero;"/>
                <path d="M548.016,114.909L598.8,121.81C586.73,5 555.82,10.76 549.08,5.47C548.68,5.15 548.28,4.85 547.87,4.57C541.45,0.09 534.3,-0.31 522,0.14C511.22,0.55 510,11.58 509.86,15.33L509.86,16.56C511.624,47.565 511.624,78.645 509.86,109.65C519.113,111.784 544.584,114.543 548.016,114.909ZM546.251,7.191C546.558,7.404 546.858,7.631 547.159,7.871L547.17,7.88C548.378,8.829 550.187,9.543 552.501,10.428C556.716,12.041 562.931,14.683 569.456,23.632C579.153,36.931 589.323,63.377 595.327,118.235C595.327,118.234 548.43,111.862 548.43,111.862L548.386,111.856C545.219,111.518 523.663,109.192 513.077,107.178C514.698,76.963 514.651,46.682 512.935,16.471C512.935,16.473 512.935,15.39 512.935,15.39C513.051,12.385 513.689,3.535 522.116,3.213C533.506,2.797 540.165,2.943 546.11,7.092L546.251,7.191Z" style="fill:rgb(20,12,12);"/>
            </g>
            <g>
                <path d="M202.21,4.57C208.62,0.09 215.77,-0.31 228,0.14C238.84,0.55 240.07,11.58 240.19,15.33L240.19,16.56C238.426,47.565 238.426,78.645 240.19,109.65C230.909,111.793 205.267,114.565 202.003,114.914L151.28,121.81C163.35,5 194.24,10.76 201,5.47C201.4,5.15 201.8,4.85 202.21,4.57Z" style="fill:rgb(8,8,8);fill-opacity:0.33;fill-rule:nonzero;"/>
                <path d="M202.21,4.57C208.62,0.09 215.77,-0.31 228,0.14C238.84,0.55 240.07,11.58 240.19,15.33L240.19,16.56C238.426,47.565 238.426,78.645 240.19,109.65C230.909,111.793 205.267,114.565 202.003,114.914L151.28,121.81C163.35,5 194.24,10.76 201,5.47C201.4,5.15 201.8,4.85 202.21,4.57ZM203.944,7.109L203.958,7.1C209.906,2.943 216.563,2.796 227.885,3.213C236.333,3.533 237.011,12.326 237.114,15.351C237.115,15.382 237.115,16.473 237.115,16.473C235.4,46.683 235.353,76.964 236.974,107.179C226.348,109.202 204.649,111.539 201.677,111.856L201.633,111.861C201.589,111.867 154.752,118.235 154.752,118.235C160.756,63.377 170.921,36.93 180.616,23.631C187.139,14.683 193.353,12.04 197.572,10.428C199.885,9.544 201.695,8.83 202.895,7.892L202.908,7.881C203.259,7.6 203.597,7.346 203.944,7.109Z" style="fill:rgb(20,12,12);"/>
            </g>
        </g>
    </g>
</svg>
