<?xml version="1.0" encoding="utf-8"?>
<!-- Generator: Adobe Illustrator 16.0.2, SVG Export Plug-In . SVG Version: 6.00 Build 0)  -->
<!DOCTYPE svg PUBLIC "-//W3C//DTD SVG 1.1//EN" "http://www.w3.org/Graphics/SVG/1.1/DTD/svg11.dtd">
<svg version="1.1" id="Layer_3" xmlns="http://www.w3.org/2000/svg" xmlns:xlink="http://www.w3.org/1999/xlink" x="0px" y="0px"
	 width="1040px" height="267.5px" viewBox="0 0 1040 267.5" enable-background="new 0 0 1040 267.5" xml:space="preserve">
<g>
	<path fill="#FFFFFF" d="M508.194,133.367c-1.25-1.25-72.5-75-73.75-76.25c-3.75-3.75-5-2.5-5,0c0,1.25,0,47.5,0,47.5h-90v58.75h90
		c0,0,0,46.25,0,47.5c0,2.5,1.25,3.75,5,0c1.042-1.043,75-76.25,73.75-75C508.194,135.867,509.444,134.617,508.194,133.367z"/>
	<path fill="none" stroke="#000000" stroke-width="10" stroke-miterlimit="10" d="M430.779,218.234
		c-3.051,0-6.335-2.306-6.335-7.367v-42.5h-85c-2.761,0-5-2.238-5-5v-58.75c0-2.762,2.239-5,5-5h85v-42.5
		c0-5.062,3.284-7.367,6.335-7.367c2.986,0,5.417,2.047,7.2,3.831c0.611,0.611,14.361,14.834,36.935,38.186
		c17.737,18.349,36.077,37.322,36.819,38.068c1.854,1.854,2.48,4.409,1.673,6.832c-0.478,1.434-1.331,2.391-1.677,2.735
		c-0.063,0.063-0.127,0.125-0.193,0.184c-0.2,0.22-0.397,0.42-0.575,0.602l-35.68,36.293c-16.86,17.146-36.745,37.365-37.3,37.921
		C436.196,216.187,433.766,218.234,430.779,218.234z"/>
	<path fill="none" stroke="#000000" stroke-width="4" stroke-linecap="square" stroke-linejoin="round" stroke-miterlimit="10" d="
		M439.444,153.367h-90v-38.75h90V76.658c7.023,7.263,50.212,51.94,55.999,57.922c-11.868,12.076-39.837,40.52-55.999,56.95V153.367z
		"/>
</g>
<path fill="none" stroke="#00A0C6" stroke-miterlimit="10" d="M163.125,64"/>
<g>
	
		<path fill="#EC4D3C" stroke="#111111" stroke-width="6" stroke-linecap="round" stroke-linejoin="round" stroke-miterlimit="10" d="
		M1015,238.5l-41.428-78.571c0,0,18.928-18.929,21.428-21.429s2.5-5,0-7.5s-23.842-25.331-23.842-25.331L1000,43.5l-59.602,29.486
		c0,0-22.898-24.486-25.398-26.986s-5-2.5-7.5,0s-23.555,23.555-23.555,23.555L807.5,28.5l41.055,76.445
		c0,0-23.555,23.555-26.055,26.055s-2.5,5,0,7.5s27.848,26.211,27.848,26.211L822.5,221l58.715-27.239
		c0,0,23.785,22.239,26.285,24.739s5,2.5,7.5,0s22.857-22.857,22.857-22.857L1015,238.5z"/>
	<circle fill="#111111" cx="910" cy="133.5" r="60"/>
	<g>
		<path fill="#E94C3C" d="M883.791,99.036c-6.401,0-16.656,14.77-17.602,20.362c-1.812,10.717,0.991,19.842,6.912,28.592
			c5.166,7.635,10.989,14.852,16.969,21.861c3.448,4.044-2.455,12.625,2.951,15.733c7.337,4.219,18.915,3.409,26.949,2.358
			c9.474-1.238,13.535-4.967,13.535-14.441c0-4.899-0.334-4.736,3.625-7.552c5.235-3.724,9.027-7.671,10.321-14.218
			c3.195-16.172-11.124-6.768-16.313-0.063c-4.561-6.77-9.158-13.816-14.737-19.798c-6.613-7.091-18.63-8.754-27.876-8.911
			c5.924-10.931,13.426,3.636,22.313,0.574c4.631-1.596,1.139-9.056-0.574-11.546c-4.842-7.041-13.568-11.303-21.738-12.953"/>
		<path fill="#E94C3C" d="M893.26,91.859c0-5.834,10.123-14.262,15.621-14.604c5.684-0.355,11.657,6.785,6.577,11.063
			C909.686,93.18,893.26,109.516,893.26,91.859C893.26,87.187,893.26,94.252,893.26,91.859z"/>
		<path fill="#E94C3C" d="M907.467,101.691c0-6.046,10.936-12.818,15.906-14.354c5.975-1.849,10.243,8.523,6.348,12.461
			c-2.713,2.74-7.479,10.026-11.084,11.199C912.98,112.838,907.467,106.681,907.467,101.691
			C907.467,97.021,907.467,102.889,907.467,101.691z"/>
		<path fill="#E94C3C" d="M916.936,120.568c0-6.727,12.539-15.842,17.859-18.436c6.857-3.343,14.277,5.413,8.749,10.923
			C937.955,118.626,916.936,144.426,916.936,120.568C916.936,115.897,916.936,121.766,916.936,120.568z"/>
		<path fill="#E94C3C" d="M926.404,137.316c0-7.45,22.818-25.872,27.742-15.918C958.823,130.83,926.404,156.903,926.404,137.316
			C926.404,132.644,926.404,137.914,926.404,137.316z"/>
	</g>
</g>
<polygon fill="#FFFFFF" stroke="#000000" stroke-width="9" stroke-linejoin="round" stroke-miterlimit="10" points="129.825,23.5 
	156.517,96.035 233.75,99.006 173.013,146.805 194.054,221.178 129.825,178.184 65.596,221.178 86.637,146.805 25.9,99.006 
	103.133,96.035 "/>
<g>
	<path fill="#101616" d="M736.592,127.375c18.533-11.302,30.908-31.705,30.908-55C767.5,36.822,738.678,8,703.125,8
		c-25.996,0-48.377,15.418-58.54,37.602C632.777,31.776,615.23,23,595.625,23c-35.553,0-64.375,28.822-64.375,64.375
		c0,22.632,11.689,42.521,29.349,54c-17.659,11.479-29.349,31.369-29.349,54c0,35.553,28.822,64.375,64.375,64.375
		c25.485,0,47.508-14.813,57.939-36.295c11.808,14.229,29.625,23.295,49.561,23.295c35.553,0,64.375-28.822,64.375-64.375
		C767.5,159.08,755.125,138.677,736.592,127.375z"/>
	<g>
		<circle fill="#424D4C" cx="595" cy="194.75" r="48.75"/>
		<circle fill="#424D4C" cx="595" cy="86.75" r="48.75"/>
		<circle fill="#424D4C" cx="702.5" cy="71.75" r="48.75"/>
		<circle fill="#424D4C" cx="702.5" cy="181.75" r="48.75"/>
	</g>
</g>
</svg>
