<?xml version="1.0" encoding="utf-8"?>
<!-- Generator: Adobe Illustrator 16.0.2, SVG Export Plug-In . SVG Version: 6.00 Build 0)  -->
<!DOCTYPE svg PUBLIC "-//W3C//DTD SVG 1.1//EN" "http://www.w3.org/Graphics/SVG/1.1/DTD/svg11.dtd">
<svg version="1.1" id="Layer_3" xmlns="http://www.w3.org/2000/svg" xmlns:xlink="http://www.w3.org/1999/xlink" x="0px" y="0px"
	 width="1170px" height="267.5px" viewBox="0 0 1170 267.5" enable-background="new 0 0 1170 267.5" xml:space="preserve">
<g>
	<path fill="none" stroke="#FFFFFF" stroke-width="6" stroke-miterlimit="10" d="M483.279,218.234c-3.052,0-6.335-2.307-6.335-7.367
		v-42.5h-85c-2.762,0-5-2.238-5-5v-58.75c0-2.762,2.238-5,5-5h85v-42.5c0-5.062,3.283-7.367,6.335-7.367
		c2.985,0,5.417,2.047,7.199,3.831c0.611,0.611,14.361,14.834,36.936,38.186c17.737,18.349,36.077,37.322,36.819,38.068
		c1.854,1.854,2.479,4.409,1.673,6.832c-0.479,1.435-1.331,2.392-1.678,2.735c-0.063,0.063-0.127,0.125-0.192,0.184
		c-0.2,0.221-0.397,0.42-0.575,0.602l-35.68,36.293c-16.86,17.146-36.745,37.365-37.3,37.922
		C488.696,216.188,486.266,218.234,483.279,218.234z"/>
	<path fill="none" stroke="#FFFFFF" stroke-width="3" stroke-linecap="square" stroke-linejoin="round" stroke-miterlimit="10" d="
		M491.944,153.367h-90v-38.75h90V76.658c7.022,7.263,50.212,51.94,55.999,57.922c-11.868,12.076-39.838,40.52-55.999,56.95V153.367z
		"/>
</g>
<path fill="none" stroke="#00A0C6" stroke-miterlimit="10" d="M163.125,64"/>
<g>
	<path fill="none" stroke="#FFFFFF" stroke-width="3" stroke-linecap="round" stroke-linejoin="round" stroke-miterlimit="10" d="
		M1145,238.5l-41.428-78.57c0,0,18.928-18.93,21.428-21.43s2.5-5,0-7.5s-23.842-25.331-23.842-25.331L1130,43.5l-59.602,29.486
		c0,0-22.898-24.486-25.398-26.986s-5-2.5-7.5,0s-23.555,23.555-23.555,23.555L937.5,28.5l41.055,76.445
		c0,0-23.555,23.555-26.055,26.055s-2.5,5,0,7.5s27.848,26.211,27.848,26.211L952.5,221l58.715-27.239
		c0,0,23.785,22.239,26.285,24.739s5,2.5,7.5,0s22.857-22.857,22.857-22.857L1145,238.5z"/>
	<path fill="#FFFFFF" d="M1040,73.5c-33.137,0-60,26.863-60,60c0,33.137,26.863,60,60,60s60-26.863,60-60
		C1100,100.363,1073.137,73.5,1040,73.5z M1075.345,106.476c1.498,3.027,0,4.785,0,4.785l-18.938,18.877
		c0,0-6.998,3.471-9.469-4.785c-0.344-1.145-0.002-3.587-0.002-4.785c0-4.671,14.136-17.393,18.938-18.877
		C1068.405,100.909,1072.977,101.691,1075.345,106.476z M1060.475,92.122c1.496,3.025,0,6.913,0,6.913l-11.838,11.962
		c0,0-8.698,1.078-11.17-7.178c-0.342-1.142,0-0.93,0-2.128c0-4.671,11.101-12.869,15.906-14.354
		C1055.9,86.555,1058.107,87.337,1060.475,92.122z M1023.26,91.859c0-4.673,9.404-12.871,14.207-14.355
		c2.527-0.782,7.103,0,9.469,4.785c1.496,3.025,0,4.785,0,4.785l-14.202,11.962c0,0-9.474,2.956-9.474-2.392
		C1023.26,94.252,1023.26,94.252,1023.26,91.859z M1072.975,161.24c-2.957,2.99-9.469,7.178-9.469,7.178s0,9.571,0,11.963
		c0,2.393-3.55,3.588-4.734,4.785c-4.733,4.785-37.879,4.785-37.879-2.393c0-2.394,0-11.963,0-11.963s-20.566-23.695-23.672-33.494
		c-1.627-5.126-2.278-16.669,0-21.533c2.51-5.351,14.203-16.747,16.57-16.747l4.735-0.001c11.838,2.392,21.391,9.821,23.676,16.747
		c2.367,7.178,0,9.571-9.469,7.178c0,0-6.83-4.951-9.474-4.785c-2.129,0.134-4.733,4.785-4.733,4.785s16.573,0,26.043,7.178
		c4.362,3.309,16.569,21.531,16.569,21.531s7.102-9.567,14.205-9.567c1.775,0,2.367,2.393,2.367,7.176
		C1077.711,154.063,1074.299,159.902,1072.975,161.24z M1065.874,143.663c-2.244,1.249-6.994,4.301-9.469-3.955
		c-0.173-0.572-0.001-1.794-0.001-2.392c0-4.673,16.502-17.656,21.307-19.142c2.529-0.782,4.068-1.563,6.437,3.223
		c1.5,3.025,0.707,3.825,0,4.785C1077.711,134.923,1072.975,139.708,1065.874,143.663z"/>
</g>
<polygon fill="none" stroke="#FFFFFF" stroke-width="6" stroke-linejoin="round" stroke-miterlimit="10" points="129.825,34.572 
	156.517,107.107 233.75,110.078 173.013,157.877 194.054,232.25 129.825,189.256 65.596,232.25 86.637,157.877 25.9,110.078 
	103.133,107.107 "/>
<g>
	<path fill="none" stroke="#FFFFFF" stroke-width="6" stroke-miterlimit="10" d="M866.592,127.375
		c18.533-11.301,30.908-31.705,30.908-55C897.5,36.822,868.679,8,833.125,8c-25.996,0-48.378,15.418-58.54,37.601
		C762.777,31.776,745.231,23,725.625,23c-35.554,0-64.375,28.822-64.375,64.375c0,22.632,11.688,42.521,29.349,54
		c-17.66,11.479-29.349,31.368-29.349,54c0,35.553,28.821,64.375,64.375,64.375c25.485,0,47.508-14.813,57.939-36.295
		c11.808,14.229,29.624,23.295,49.561,23.295c35.554,0,64.375-28.822,64.375-64.375C897.5,159.08,885.125,138.677,866.592,127.375z"
		/>
	<circle fill="none" stroke="#FFFFFF" stroke-width="3" stroke-miterlimit="10" cx="725" cy="194.75" r="48.75"/>
	<circle fill="none" stroke="#FFFFFF" stroke-width="3" stroke-miterlimit="10" cx="725" cy="86.75" r="48.75"/>
	<circle fill="none" stroke="#FFFFFF" stroke-width="3" stroke-miterlimit="10" cx="832.5" cy="71.75" r="48.75"/>
	<circle fill="none" stroke="#FFFFFF" stroke-width="3" stroke-miterlimit="10" cx="832.5" cy="181.75" r="48.75"/>
</g>
</svg>
