<?xml version="1.0" encoding="UTF-8" standalone="no"?>
<!DOCTYPE svg PUBLIC "-//W3C//DTD SVG 1.1//EN" "http://www.w3.org/Graphics/SVG/1.1/DTD/svg11.dtd">
<svg width="100%" height="100%" viewBox="0 0 283 140" version="1.1" xmlns="http://www.w3.org/2000/svg" xmlns:xlink="http://www.w3.org/1999/xlink" xml:space="preserve" xmlns:serif="http://www.serif.com/" style="fill-rule:evenodd;clip-rule:evenodd;stroke-linecap:round;stroke-linejoin:round;stroke-miterlimit:1.5;">
    <g transform="matrix(0.834543,-0.371562,0.399529,0.897358,-301.298,-263.676)">
        <ellipse cx="350" cy="539.25" rx="25" ry="23.25" style="fill:white;stroke:white;stroke-width:1.05px;"/>
    </g>
    <g transform="matrix(0.386362,-0.17202,0.17202,0.386362,1.00292,31.0955)">
        <path d="M362.5,337.5L362.5,312.5L406.25,312.5L406.29,312.5C409.721,312.522 412.5,315.314 412.5,318.75C412.5,322.199 409.699,325 406.25,325C409.699,325 412.5,327.801 412.5,331.25C412.5,334.699 409.699,337.5 406.25,337.5L362.5,337.5Z" style="fill:none;stroke:rgb(172,172,172);stroke-width:7.09px;"/>
    </g>
    <g transform="matrix(0.386362,-0.17202,0.17202,0.386362,1.00292,31.0955)">
        <path d="M406.5,325L362.5,325" style="fill:none;stroke:rgb(172,172,172);stroke-width:7.09px;"/>
    </g>
</svg>
