<?xml version="1.0" encoding="UTF-8" standalone="no"?>
<!DOCTYPE svg PUBLIC "-//W3C//DTD SVG 1.1//EN" "http://www.w3.org/Graphics/SVG/1.1/DTD/svg11.dtd">
<svg width="100%" height="100%" viewBox="0 0 800 600" version="1.1" xmlns="http://www.w3.org/2000/svg" xmlns:xlink="http://www.w3.org/1999/xlink" xml:space="preserve" xmlns:serif="http://www.serif.com/" style="fill-rule:evenodd;clip-rule:evenodd;stroke-linecap:round;stroke-linejoin:round;stroke-miterlimit:1.5;">
    <g transform="matrix(1,0,0,1,0,-4)">
        <g id="Layer1">
            <path d="M412.5,121C560.128,123.715 602,150 652.033,200C735.247,283.158 702.998,429.701 600.033,425C546.627,422.562 561.672,359.245 399.339,356.5C237.005,359.245 253.406,422.562 200,425C97.036,429.701 64.814,283.186 148,200C198,150 239.831,123.71 387.5,121L412.5,121Z" style="fill:rgb(24,24,24);"/>
        </g>
    </g>
    <g id="Layer2">
        <path d="M266.731,128.456L286.5,148.5C360.577,136.623 436.24,136.6 513.5,148.5L533.264,128.461C590.349,140.95 619.462,163.45 652.033,196C735.247,279.158 702.998,425.701 600.033,421C546.627,418.562 561.672,355.245 399.339,352.5C237.005,355.245 253.406,418.562 200,421C97.036,425.701 64.814,279.186 148,196C180.555,163.445 209.647,140.941 266.731,128.456ZM312.124,185.399C346.112,219.387 337.814,282.873 293.605,327.082C249.396,371.291 185.91,379.589 151.922,345.601C117.935,311.613 126.233,248.127 170.442,203.918C214.651,159.709 278.136,151.411 312.124,185.399ZM487.876,185.399C453.888,219.387 462.186,282.873 506.395,327.082C550.604,371.291 614.09,379.589 648.078,345.601C682.065,311.613 673.767,248.127 629.558,203.918C585.349,159.709 521.864,151.411 487.876,185.399Z" style="fill:rgb(57,57,57);"/>
        <circle cx="237.5" cy="262.5" r="53.5" style="fill:rgb(57,57,57);stroke:white;stroke-width:1px;"/>
        <g id="Sega-Logo.wine.svg" transform="matrix(0.0833333,0,0,0.0833333,400,208)">
            <g transform="matrix(1,0,0,1,-600,-400)">
                <path d="M159.588,532.026L274.902,531.909C322.08,531.909 360.314,493.792 360.314,446.826C360.314,399.768 322.08,361.648 274.902,361.648L244.954,361.811C242.594,361.811 240.68,359.875 240.68,357.494C240.68,355.112 242.594,353.174 244.954,353.174L360.058,353.198L360.105,317.088L244.929,317.088C222.662,317.088 204.545,335.177 204.545,357.402C204.545,379.648 222.658,397.666 244.929,397.666L275.018,398.063C302.049,398.063 323.923,419.863 323.923,446.758C323.923,473.672 302.052,495.522 275.018,495.522L159.634,495.522L159.588,532.026" style="fill:white;fill-rule:nonzero;"/>
                <path d="M159.634,487.045L275.018,487.045C297.357,487.045 315.425,469.026 315.425,446.755C315.425,424.509 297.357,406.512 275.018,406.512L244.929,406.186C217.945,406.186 196.049,384.362 196.049,357.398C196.049,330.509 217.945,308.682 244.929,308.682L360.105,308.657L360.058,272.408L244.954,272.408C197.825,272.408 159.542,310.482 159.542,357.494C159.542,404.506 197.825,442.602 244.954,442.602L274.738,442.648C277.003,442.648 278.917,444.494 278.917,446.826C278.917,449.115 277.003,450.958 274.738,450.958L159.588,451.051L159.634,487.045M449.717,495.752C429.711,495.752 413.323,479.808 413.323,459.451L413.323,344.257C413.323,324.672 429.711,308.565 449.717,308.565L572.803,308.586L572.803,272.408L449.717,272.408C409.662,272.408 377.215,304.737 377.215,344.654L377.215,459.454C377.215,499.374 409.662,531.749 449.717,531.749L572.289,531.798L572.265,495.709L449.717,495.752" style="fill:white;fill-rule:nonzero;"/>
                <path d="M422.148,344.654C422.148,329.389 434.428,317.017 449.717,317.017L572.803,317.017L572.803,353.245L466.757,353.245C458.262,353.245 458.145,361.672 458.145,361.672L546.615,361.672L546.615,397.737L422.105,397.737L422.148,344.654M449.717,486.977C434.474,486.977 422.102,474.675 422.102,459.454L422.102,406.325L546.612,406.325L546.612,442.463L458.142,442.463C458.258,450.958 466.754,451.002 466.754,451.002L572.286,451.002L572.262,486.928L449.717,486.977M659.058,495.66C639.123,495.66 622.831,479.414 622.831,459.451L622.831,344.651C622.831,324.669 639.006,308.562 658.963,308.562L778.178,308.562L778.178,272.408L658.686,272.408C618.649,272.408 586.203,304.737 586.203,344.654L586.203,459.454C586.203,499.374 618.929,531.749 658.963,531.749L778.178,531.798L778.178,361.672L675.726,361.672L675.726,397.737L741.972,397.737L741.972,495.66L659.058,495.66" style="fill:white;fill-rule:nonzero;"/>
                <path d="M631.326,459.451C631.326,474.746 643.698,487.186 658.963,487.186L733.428,487.186L733.428,406.278L675.815,406.278L675.815,442.463L697.197,442.463L697.265,450.958L675.978,450.958C671.332,450.958 667.529,447.109 667.529,442.463L667.338,361.648C667.338,361.648 667.314,353.245 675.883,353.035L778.218,353.035L778.172,316.992L658.957,317.017C643.692,317.017 631.32,329.389 631.32,344.654L631.32,459.451M890.2,316.478C891.806,311.882 896.172,308.568 901.332,308.568C906.495,308.568 910.905,311.882 912.468,316.478L970.338,487.442L885.6,487.442L885.692,447.223L914.009,447.223L901.262,409.337L859.735,531.768L817.018,531.768L890.2,316.478" style="fill:white;fill-rule:nonzero;"/>
                <path d="M982.006,495.66L885.742,495.66L885.742,531.768L1032.24,531.768L956.049,306.346C949.372,284.358 927.363,268.183 901.308,268.183C875.212,268.183 853.271,284.288 846.545,306.257L769.655,531.771L808.009,531.771L882.662,312.558C885.692,305.3 892.84,300.186 901.243,300.186C909.6,300.186 916.788,305.3 919.846,312.512L982.006,495.66" style="fill:white;fill-rule:nonzero;"/>
            </g>
        </g>
        <g transform="matrix(-0.254558,-0.254558,0.622254,-0.622254,155.563,465.352)">
            <path d="M237.5,175L250,187.5L225,187.5L237.5,175Z" style="fill:white;"/>
        </g>
        <g transform="matrix(0.254558,-0.254558,0.622254,0.622254,34.6479,180.563)">
            <path d="M237.5,175L250,187.5L225,187.5L237.5,175Z" style="fill:white;"/>
        </g>
        <g transform="matrix(-1,-1.22465e-16,1.22465e-16,-1,475,525)">
            <path d="M237.5,212.5L250,212.5L250,250L287.5,250L287.5,262.5" style="fill:none;stroke:white;stroke-width:1px;"/>
        </g>
        <g transform="matrix(6.12323e-17,-1,1,6.12323e-17,-25,500)">
            <path d="M237.5,212.5L250,212.5L250,250L287.5,250L287.5,262.5" style="fill:none;stroke:white;stroke-width:1px;"/>
        </g>
        <g transform="matrix(-1,-1.22465e-16,1.22465e-16,-1,475,525)">
            <circle cx="237.5" cy="262.5" r="12.5" style="fill:none;stroke:white;stroke-width:1px;"/>
        </g>
        <g transform="matrix(0.254558,0.254558,-0.622254,0.622254,319.437,59.6479)">
            <path d="M237.5,175L250,187.5L225,187.5L237.5,175Z" style="fill:white;"/>
        </g>
        <g transform="matrix(-0.254558,0.254558,-0.622254,-0.622254,440.352,344.437)">
            <path d="M237.5,175L250,187.5L225,187.5L237.5,175Z" style="fill:white;"/>
        </g>
        <path d="M237.5,212.5L250,212.5L250,250L287.5,250L287.5,262.5" style="fill:none;stroke:white;stroke-width:1px;"/>
        <g transform="matrix(6.12323e-17,1,-1,6.12323e-17,500,25)">
            <path d="M237.5,212.5L250,212.5L250,250L287.5,250L287.5,262.5" style="fill:none;stroke:white;stroke-width:1px;"/>
        </g>
        <g transform="matrix(0.900901,0,0,1.33333,25.9009,-329.667)">
            <path d="M443,437C443,433.689 439.021,431 434.12,431L396.38,431C391.479,431 387.5,433.689 387.5,437C387.5,440.311 391.479,443 396.38,443L434.12,443C439.021,443 443,440.311 443,437Z" style="fill:rgb(255,0,0);stroke:white;stroke-width:0.88px;"/>
        </g>
        <g transform="matrix(0.834543,-0.371562,0.399529,0.897358,21.8048,-46.9694)">
            <ellipse cx="350" cy="539.25" rx="25" ry="23.25" style="fill:rgb(57,57,57);stroke:white;stroke-width:1.05px;"/>
        </g>
        <g transform="matrix(0.834543,-0.371562,0.399529,0.897358,73.2021,-72.9007)">
            <ellipse cx="350" cy="539.25" rx="25" ry="23.25" style="fill:rgb(57,57,57);stroke:white;stroke-width:1.05px;"/>
        </g>
        <g transform="matrix(0.834543,-0.371562,0.399529,0.897358,126.123,-93.4147)">
            <ellipse cx="350" cy="539.25" rx="25" ry="23.25" style="fill:rgb(57,57,57);stroke:white;stroke-width:1.05px;"/>
        </g>
        <g transform="matrix(0.386362,-0.17202,0.17202,0.386362,330.47,262.097)">
            <path d="M362.5,300L387.5,275L412.5,300" style="fill:none;stroke:black;stroke-width:7.09px;"/>
        </g>
        <g transform="matrix(0.386362,-0.17202,0.17202,0.386362,375.503,221.87)">
            <path d="M362.5,337.5L362.5,312.5L406.25,312.5L406.29,312.5C409.721,312.522 412.5,315.314 412.5,318.75C412.5,322.199 409.699,325 406.25,325C409.699,325 412.5,327.801 412.5,331.25C412.5,334.699 409.699,337.5 406.25,337.5L362.5,337.5Z" style="fill:none;stroke:black;stroke-width:7.09px;"/>
        </g>
        <g transform="matrix(0.386362,-0.17202,0.17202,0.386362,375.503,221.87)">
            <path d="M406.5,325L362.5,325" style="fill:none;stroke:black;stroke-width:7.09px;"/>
        </g>
        <g transform="matrix(0.386362,-0.17202,0.17202,0.386362,330.47,262.097)">
            <path d="M375,287.5L400,287.5" style="fill:none;stroke:black;stroke-width:7.09px;"/>
        </g>
        <g transform="matrix(0.386362,-0.17202,0.17202,0.386362,421.672,187.233)">
            <path d="M412.5,350L362.5,350L362.5,375L412.5,375" style="fill:none;stroke:black;stroke-width:7.09px;"/>
        </g>
        <g transform="matrix(0.764998,-0.340599,0.366235,0.822578,38.1961,-69.5782)">
            <ellipse cx="350" cy="539.25" rx="25" ry="23.25" style="fill:rgb(172,172,172);stroke:white;stroke-width:1.15px;"/>
        </g>
        <g transform="matrix(0.764998,-0.340599,0.366235,0.822578,85.3103,-93.3486)">
            <ellipse cx="350" cy="539.25" rx="25" ry="23.25" style="fill:rgb(172,172,172);stroke:white;stroke-width:1.15px;"/>
        </g>
        <g transform="matrix(0.764998,-0.340599,0.366235,0.822578,133.821,-112.153)">
            <ellipse cx="350" cy="539.25" rx="25" ry="23.25" style="fill:rgb(172,172,172);stroke:white;stroke-width:1.15px;"/>
        </g>
        <g transform="matrix(0.354166,-0.157685,0.157685,0.354166,321.139,213.733)">
            <path d="M362.5,300L412.49,277.584" style="fill:none;stroke:black;stroke-width:7.74px;"/>
        </g>
        <g transform="matrix(0.354166,-0.157685,0.157685,0.354166,321.139,213.733)">
            <path d="M362.731,275.194L411.166,299.582" style="fill:none;stroke:black;stroke-width:7.74px;"/>
        </g>
        <g transform="matrix(1,0,0,1,-6,0)">
            <path d="M594.316,211.905L612.024,204L598,221L616,213" style="fill:none;stroke:black;stroke-width:3px;"/>
        </g>
        <g transform="matrix(1,0,0,1,-6,0)">
            <path d="M546,230L557,231L564,223L557,231L560,237" style="fill:none;stroke:black;stroke-width:3px;"/>
        </g>
    </g>
    <g transform="matrix(1,0,0,1,227.229,246.486)">
        <text x="154.617px" y="31.522px" style="font-family:'MicrosoftSansSerif', 'Microsoft Sans Serif', sans-serif;font-size:11px;fill:white;">START</text>
    </g>
</svg>
