<?xml version="1.0" encoding="UTF-8" standalone="no"?>
<!DOCTYPE svg PUBLIC "-//W3C//DTD SVG 1.1//EN" "http://www.w3.org/Graphics/SVG/1.1/DTD/svg11.dtd">
<svg width="100%" height="100%" viewBox="0 0 200 200" version="1.1" xmlns="http://www.w3.org/2000/svg" xmlns:xlink="http://www.w3.org/1999/xlink" xml:space="preserve" xmlns:serif="http://www.serif.com/" style="fill-rule:evenodd;clip-rule:evenodd;stroke-linecap:round;stroke-linejoin:round;stroke-miterlimit:1.5;">
    <g transform="matrix(1,0,0,1,-137.5,-162.5)">
        <circle cx="237.5" cy="262.5" r="100" style="fill:rgb(24,24,24);"/>
    </g>
    <g transform="matrix(1,0,0,1,-137.5,-162.5)">
        <circle cx="237.5" cy="262.5" r="53.5" style="fill:rgb(57,57,57);stroke:white;stroke-width:1px;"/>
    </g>
    <g transform="matrix(0.52,0,0,1,-23.5,-162.5)">
        <path d="M237.5,175L250,187.5L225,187.5L237.5,175Z" style="fill:white;"/>
    </g>
    <g transform="matrix(3.18408e-17,0.52,-1,6.12323e-17,362.5,-23.5)">
        <path d="M237.5,175L250,187.5L225,187.5L237.5,175Z" style="fill:white;"/>
    </g>
    <g transform="matrix(-0.52,-6.36816e-17,1.22465e-16,-1,223.5,362.5)">
        <path d="M237.5,175L250,187.5L225,187.5L237.5,175Z" style="fill:white;"/>
    </g>
    <g transform="matrix(3.18408e-17,-0.52,1,6.12323e-17,-162.5,223.5)">
        <path d="M237.5,175L250,187.5L225,187.5L237.5,175Z" style="fill:white;"/>
    </g>
    <g transform="matrix(0.52,0,0,1,-23.5,-162.5)">
        <path d="M237.5,175L250,187.5L225,187.5L237.5,175Z" style="fill:white;"/>
    </g>
    <g transform="matrix(-0.254558,-0.254558,0.622254,-0.622254,18.0632,302.852)">
        <path d="M237.5,175L250,187.5L225,187.5L237.5,175Z" style="fill:white;"/>
    </g>
    <g transform="matrix(0.254558,-0.254558,0.622254,0.622254,-102.852,18.0632)">
        <path d="M237.5,175L250,187.5L225,187.5L237.5,175Z" style="fill:white;"/>
    </g>
    <g transform="matrix(-0.48,-5.8783e-17,5.8783e-17,-0.48,184.5,255.5)">
        <circle cx="293.75" cy="206.25" r="6.25" style="fill:white;"/>
    </g>
    <g transform="matrix(2.93915e-17,-0.48,0.48,2.93915e-17,-55.5,184.5)">
        <circle cx="293.75" cy="206.25" r="6.25" style="fill:white;"/>
    </g>
    <g transform="matrix(-1,-1.22465e-16,1.22465e-16,-1,337.5,362.5)">
        <path d="M237.5,212.5L250,212.5L250,250L287.5,250L287.5,262.5" style="fill:none;stroke:white;stroke-width:1px;"/>
    </g>
    <g transform="matrix(6.12323e-17,-1,1,6.12323e-17,-162.5,337.5)">
        <path d="M237.5,212.5L250,212.5L250,250L287.5,250L287.5,262.5" style="fill:none;stroke:white;stroke-width:1px;"/>
    </g>
    <g transform="matrix(-1,-1.22465e-16,1.22465e-16,-1,337.5,362.5)">
        <circle cx="237.5" cy="262.5" r="12.5" style="fill:none;stroke:white;stroke-width:1px;"/>
    </g>
    <g transform="matrix(-0.52,6.36816e-17,-1.22465e-16,-1,223.5,362.5)">
        <path d="M237.5,175L250,187.5L225,187.5L237.5,175Z" style="fill:white;"/>
    </g>
    <g transform="matrix(0.254558,0.254558,-0.622254,0.622254,181.937,-102.852)">
        <path d="M237.5,175L250,187.5L225,187.5L237.5,175Z" style="fill:white;"/>
    </g>
    <g transform="matrix(-0.254558,0.254558,-0.622254,-0.622254,302.852,181.937)">
        <path d="M237.5,175L250,187.5L225,187.5L237.5,175Z" style="fill:white;"/>
    </g>
    <g transform="matrix(0.48,0,0,0.48,15.5,-55.5)">
        <circle cx="293.75" cy="206.25" r="6.25" style="fill:white;"/>
    </g>
    <g transform="matrix(2.93915e-17,0.48,-0.48,2.93915e-17,255.5,15.5)">
        <circle cx="293.75" cy="206.25" r="6.25" style="fill:white;"/>
    </g>
    <g transform="matrix(1,0,0,1,-137.5,-162.5)">
        <path d="M237.5,212.5L250,212.5L250,250L287.5,250L287.5,262.5" style="fill:none;stroke:white;stroke-width:1px;"/>
    </g>
    <g transform="matrix(6.12323e-17,1,-1,6.12323e-17,362.5,-137.5)">
        <path d="M237.5,212.5L250,212.5L250,250L287.5,250L287.5,262.5" style="fill:none;stroke:white;stroke-width:1px;"/>
    </g>
</svg>
