<?xml version="1.0" encoding="UTF-8" standalone="no"?>
<!DOCTYPE svg PUBLIC "-//W3C//DTD SVG 1.1//EN" "http://www.w3.org/Graphics/SVG/1.1/DTD/svg11.dtd">
<svg width="100%" height="100%" viewBox="0 0 800 600" version="1.1" xmlns="http://www.w3.org/2000/svg" xmlns:xlink="http://www.w3.org/1999/xlink" xml:space="preserve" xmlns:serif="http://www.serif.com/" style="fill-rule:evenodd;clip-rule:evenodd;stroke-linecap:round;stroke-linejoin:round;stroke-miterlimit:1.5;">
    <g id="Layer1">
        <path d="M400.97,100.001C566.112,100.277 700,169.394 700,260C700,340 660,450 580,450C534,450 521.371,407.357 520,407.655C500,360 460,360 400.715,360C400.478,360 400.24,359.994 400,359.982C399.76,359.994 399.522,360 399.285,360C340,360 300,360 280,407.655C278.629,407.357 266,450 220,450C140,450 100,340 100,260C100,169.213 234.425,100 400,100L400.97,100.001Z" style="fill:rgb(57,57,57);"/>
    </g>
    <g id="Layer2">
        <circle cx="237.5" cy="262.5" r="100" style="fill:rgb(24,24,24);"/>
        <circle cx="237.5" cy="262.5" r="53.5" style="fill:rgb(57,57,57);stroke:white;stroke-width:1px;"/>
        <g transform="matrix(0.0833333,0,0,0.0833333,352,216.667)">
            <g id="Sega-Logo.wine.svg">
                <g>
                    <path d="M159.588,532.026L274.902,531.909C322.08,531.909 360.314,493.792 360.314,446.826C360.314,399.768 322.08,361.648 274.902,361.648L244.954,361.811C242.594,361.811 240.68,359.875 240.68,357.494C240.68,355.112 242.594,353.174 244.954,353.174L360.058,353.198L360.105,317.088L244.929,317.088C222.662,317.088 204.545,335.177 204.545,357.402C204.545,379.648 222.658,397.666 244.929,397.666L275.018,398.063C302.049,398.063 323.923,419.863 323.923,446.758C323.923,473.672 302.052,495.522 275.018,495.522L159.634,495.522L159.588,532.026" style="fill:white;fill-rule:nonzero;"/>
                    <path d="M159.634,487.045L275.018,487.045C297.357,487.045 315.425,469.026 315.425,446.755C315.425,424.509 297.357,406.512 275.018,406.512L244.929,406.186C217.945,406.186 196.049,384.362 196.049,357.398C196.049,330.509 217.945,308.682 244.929,308.682L360.105,308.657L360.058,272.408L244.954,272.408C197.825,272.408 159.542,310.482 159.542,357.494C159.542,404.506 197.825,442.602 244.954,442.602L274.738,442.648C277.003,442.648 278.917,444.494 278.917,446.826C278.917,449.115 277.003,450.958 274.738,450.958L159.588,451.051L159.634,487.045M449.717,495.752C429.711,495.752 413.323,479.808 413.323,459.451L413.323,344.257C413.323,324.672 429.711,308.565 449.717,308.565L572.803,308.586L572.803,272.408L449.717,272.408C409.662,272.408 377.215,304.737 377.215,344.654L377.215,459.454C377.215,499.374 409.662,531.749 449.717,531.749L572.289,531.798L572.265,495.709L449.717,495.752" style="fill:white;fill-rule:nonzero;"/>
                    <path d="M422.148,344.654C422.148,329.389 434.428,317.017 449.717,317.017L572.803,317.017L572.803,353.245L466.757,353.245C458.262,353.245 458.145,361.672 458.145,361.672L546.615,361.672L546.615,397.737L422.105,397.737L422.148,344.654M449.717,486.977C434.474,486.977 422.102,474.675 422.102,459.454L422.102,406.325L546.612,406.325L546.612,442.463L458.142,442.463C458.258,450.958 466.754,451.002 466.754,451.002L572.286,451.002L572.262,486.928L449.717,486.977M659.058,495.66C639.123,495.66 622.831,479.414 622.831,459.451L622.831,344.651C622.831,324.669 639.006,308.562 658.963,308.562L778.178,308.562L778.178,272.408L658.686,272.408C618.649,272.408 586.203,304.737 586.203,344.654L586.203,459.454C586.203,499.374 618.929,531.749 658.963,531.749L778.178,531.798L778.178,361.672L675.726,361.672L675.726,397.737L741.972,397.737L741.972,495.66L659.058,495.66" style="fill:white;fill-rule:nonzero;"/>
                    <path d="M631.326,459.451C631.326,474.746 643.698,487.186 658.963,487.186L733.428,487.186L733.428,406.278L675.815,406.278L675.815,442.463L697.197,442.463L697.265,450.958L675.978,450.958C671.332,450.958 667.529,447.109 667.529,442.463L667.338,361.648C667.338,361.648 667.314,353.245 675.883,353.035L778.218,353.035L778.172,316.992L658.957,317.017C643.692,317.017 631.32,329.389 631.32,344.654L631.32,459.451M890.2,316.478C891.806,311.882 896.172,308.568 901.332,308.568C906.495,308.568 910.905,311.882 912.468,316.478L970.338,487.442L885.6,487.442L885.692,447.223L914.009,447.223L901.262,409.337L859.735,531.768L817.018,531.768L890.2,316.478" style="fill:white;fill-rule:nonzero;"/>
                    <path d="M982.006,495.66L885.742,495.66L885.742,531.768L1032.24,531.768L956.049,306.346C949.372,284.358 927.363,268.183 901.308,268.183C875.212,268.183 853.271,284.288 846.545,306.257L769.655,531.771L808.009,531.771L882.662,312.558C885.692,305.3 892.84,300.186 901.243,300.186C909.6,300.186 916.788,305.3 919.846,312.512L982.006,495.66" style="fill:white;fill-rule:nonzero;"/>
                </g>
            </g>
        </g>
        <g transform="matrix(0.52,0,0,1,114,0)">
            <path d="M237.5,175L250,187.5L225,187.5L237.5,175Z" style="fill:white;"/>
        </g>
        <g transform="matrix(3.18408e-17,0.52,-1,6.12323e-17,500,139)">
            <path d="M237.5,175L250,187.5L225,187.5L237.5,175Z" style="fill:white;"/>
        </g>
        <g transform="matrix(-0.52,-6.36816e-17,1.22465e-16,-1,361,525)">
            <path d="M237.5,175L250,187.5L225,187.5L237.5,175Z" style="fill:white;"/>
        </g>
        <g transform="matrix(3.18408e-17,-0.52,1,6.12323e-17,-25,386)">
            <path d="M237.5,175L250,187.5L225,187.5L237.5,175Z" style="fill:white;"/>
        </g>
        <g transform="matrix(0.52,0,0,1,114,0)">
            <path d="M237.5,175L250,187.5L225,187.5L237.5,175Z" style="fill:white;"/>
        </g>
        <g transform="matrix(-0.254558,-0.254558,0.622254,-0.622254,155.563,465.352)">
            <path d="M237.5,175L250,187.5L225,187.5L237.5,175Z" style="fill:white;"/>
        </g>
        <g transform="matrix(0.254558,-0.254558,0.622254,0.622254,34.6479,180.563)">
            <path d="M237.5,175L250,187.5L225,187.5L237.5,175Z" style="fill:white;"/>
        </g>
        <g transform="matrix(-0.48,-5.8783e-17,5.8783e-17,-0.48,322,418)">
            <circle cx="293.75" cy="206.25" r="6.25" style="fill:white;"/>
        </g>
        <g transform="matrix(2.93915e-17,-0.48,0.48,2.93915e-17,82,347)">
            <circle cx="293.75" cy="206.25" r="6.25" style="fill:white;"/>
        </g>
        <g transform="matrix(-1,-1.22465e-16,1.22465e-16,-1,475,525)">
            <path d="M237.5,212.5L250,212.5L250,250L287.5,250L287.5,262.5" style="fill:none;stroke:white;stroke-width:1px;"/>
        </g>
        <g transform="matrix(6.12323e-17,-1,1,6.12323e-17,-25,500)">
            <path d="M237.5,212.5L250,212.5L250,250L287.5,250L287.5,262.5" style="fill:none;stroke:white;stroke-width:1px;"/>
        </g>
        <g transform="matrix(-1,-1.22465e-16,1.22465e-16,-1,475,525)">
            <circle cx="237.5" cy="262.5" r="12.5" style="fill:none;stroke:white;stroke-width:1px;"/>
        </g>
        <g transform="matrix(-0.52,6.36816e-17,-1.22465e-16,-1,361,525)">
            <path d="M237.5,175L250,187.5L225,187.5L237.5,175Z" style="fill:white;"/>
        </g>
        <g transform="matrix(0.254558,0.254558,-0.622254,0.622254,319.437,59.6479)">
            <path d="M237.5,175L250,187.5L225,187.5L237.5,175Z" style="fill:white;"/>
        </g>
        <g transform="matrix(-0.254558,0.254558,-0.622254,-0.622254,440.352,344.437)">
            <path d="M237.5,175L250,187.5L225,187.5L237.5,175Z" style="fill:white;"/>
        </g>
        <g transform="matrix(0.48,0,0,0.48,153,107)">
            <circle cx="293.75" cy="206.25" r="6.25" style="fill:white;"/>
        </g>
        <g transform="matrix(2.93915e-17,0.48,-0.48,2.93915e-17,393,178)">
            <circle cx="293.75" cy="206.25" r="6.25" style="fill:white;"/>
        </g>
        <path d="M237.5,212.5L250,212.5L250,250L287.5,250L287.5,262.5" style="fill:none;stroke:white;stroke-width:1px;"/>
        <g transform="matrix(6.12323e-17,1,-1,6.12323e-17,500,25)">
            <path d="M237.5,212.5L250,212.5L250,250L287.5,250L287.5,262.5" style="fill:none;stroke:white;stroke-width:1px;"/>
        </g>
        <g transform="matrix(0.966505,-0.430316,0.45193,1.01505,-75.387,-82.5558)">
            <path d="M450,438.5C450,431.049 443.647,425 435.822,425L395.178,425C387.353,425 381,431.049 381,438.5C381,445.951 387.353,452 395.178,452L435.822,452C443.647,452 450,445.951 450,438.5Z" style="fill:rgb(24,24,24);"/>
        </g>
        <g transform="matrix(0.913545,-0.406737,0.542316,1.21806,-92.2032,-179.546)">
            <path d="M443,437C443,433.689 439.415,431 435,431L395.5,431C391.085,431 387.5,433.689 387.5,437C387.5,440.311 391.085,443 395.5,443L435,443C439.415,443 443,440.311 443,437Z" style="fill:rgb(57,57,57);stroke:white;stroke-width:0.85px;"/>
        </g>
        <g transform="matrix(0.942551,-0.334062,0.324381,0.915236,2.36582,-78.9165)">
            <path d="M296,535.25C298,496 330.994,475 412.5,469.443C492.969,463.957 525.679,498.195 525.679,532.032C525.679,560.87 506.973,589.304 477,584.5C426.418,576.393 411.784,574.075 349,585.5C319.135,590.935 294.532,564.05 296,535.25Z" style="fill:rgb(24,24,24);"/>
        </g>
        <g transform="matrix(0.986629,-0.439276,0.472339,1.06089,-97.2631,-117.153)">
            <ellipse cx="350" cy="539.25" rx="25" ry="23.25" style="fill:rgb(57,57,57);stroke:white;stroke-width:0.89px;"/>
        </g>
        <g transform="matrix(0.986629,-0.439276,0.472339,1.06089,-36.4992,-147.81)">
            <ellipse cx="350" cy="539.25" rx="25" ry="23.25" style="fill:rgb(57,57,57);stroke:white;stroke-width:0.89px;"/>
        </g>
        <g transform="matrix(0.986629,-0.439276,0.472339,1.06089,26.0655,-172.062)">
            <ellipse cx="350" cy="539.25" rx="25" ry="23.25" style="fill:rgb(57,57,57);stroke:white;stroke-width:0.89px;"/>
        </g>
        <g transform="matrix(0.456773,-0.203368,0.203368,0.456773,267.653,248.238)">
            <path d="M362.5,300L387.5,275L412.5,300" style="fill:none;stroke:rgb(255,0,0);stroke-width:8px;"/>
        </g>
        <g transform="matrix(0.456773,-0.203368,0.203368,0.456773,320.893,200.68)">
            <path d="M362.5,337.5L362.5,312.5L406.29,312.5C409.721,312.522 412.5,315.314 412.5,318.75C412.5,322.199 409.699,325 406.25,325C409.699,325 412.5,327.801 412.5,331.25C412.5,334.699 409.699,337.5 406.25,337.5L362.5,337.5Z" style="fill:none;stroke:rgb(255,0,0);stroke-width:8px;"/>
        </g>
        <g transform="matrix(0.456773,-0.203368,0.203368,0.456773,320.893,200.68)">
            <path d="M406.5,325L362.5,325" style="fill:none;stroke:rgb(255,0,0);stroke-width:8px;"/>
        </g>
        <g transform="matrix(0.456773,-0.203368,0.203368,0.456773,267.653,248.238)">
            <path d="M375,287.5L400,287.5" style="fill:none;stroke:rgb(255,0,0);stroke-width:8px;"/>
        </g>
        <g transform="matrix(0.456773,-0.203368,0.203368,0.456773,375.476,159.731)">
            <path d="M412.5,350L362.5,350L362.5,375L412.5,375" style="fill:none;stroke:rgb(255,0,0);stroke-width:8px;"/>
        </g>
    </g>
    <g transform="matrix(0.913545,-0.406737,0.406737,0.913545,520.316,238.962)">
        <text x="0px" y="0px" style="font-family:'MicrosoftSansSerif', 'Microsoft Sans Serif', sans-serif;font-size:11px;fill:white;">TRIGGER</text>
    </g>
    <g transform="matrix(0.913545,-0.406737,0.406737,0.913545,498.216,173.411)">
        <text x="0px" y="0px" style="font-family:'MicrosoftSansSerif', 'Microsoft Sans Serif', sans-serif;font-size:11px;fill:white;">START</text>
    </g>
    <g transform="matrix(1,0,0,1,0,-3)">
        <g transform="matrix(0.99176,-0.128109,0.128109,0.99176,324.621,145.319)">
            <text x="0px" y="0px" style="font-family:'MicrosoftSansSerif', 'Microsoft Sans Serif', sans-serif;font-size:11px;fill:white;">M</text>
        </g>
        <g transform="matrix(0.994203,-0.107522,0.107522,0.994203,333.704,144.155)">
            <text x="0px" y="0px" style="font-family:'MicrosoftSansSerif', 'Microsoft Sans Serif', sans-serif;font-size:11px;fill:white;">E</text>
        </g>
        <g transform="matrix(0.995865,-0.0908469,0.0908469,0.995865,340.995,143.363)">
            <text x="0px" y="0px" style="font-family:'MicrosoftSansSerif', 'Microsoft Sans Serif', sans-serif;font-size:11px;fill:white;">G</text>
        </g>
        <g transform="matrix(0.997175,-0.0751194,0.0751194,0.997175,349.51,142.592)">
            <text x="0px" y="0px" style="font-family:'MicrosoftSansSerif', 'Microsoft Sans Serif', sans-serif;font-size:11px;fill:white;">A</text>
        </g>
        <g transform="matrix(0.998428,-0.0560461,0.0560461,0.998428,359.743,141.847)">
            <text x="0px" y="0px" style="font-family:'MicrosoftSansSerif', 'Microsoft Sans Serif', sans-serif;font-size:11px;fill:white;">D</text>
        </g>
        <g transform="matrix(0.99908,-0.0428822,0.0428822,0.99908,367.683,141.399)">
            <text x="0px" y="0px" style="font-family:'MicrosoftSansSerif', 'Microsoft Sans Serif', sans-serif;font-size:11px;fill:white;">R</text>
        </g>
        <g transform="matrix(0.999406,-0.0344754,0.0344754,0.999406,375.612,141.068)">
            <text x="0px" y="0px" style="font-family:'MicrosoftSansSerif', 'Microsoft Sans Serif', sans-serif;font-size:11px;fill:white;">I</text>
        </g>
        <g transform="matrix(0.99965,-0.0264546,0.0264546,0.99965,378.672,140.954)">
            <text x="0px" y="0px" style="font-family:'MicrosoftSansSerif', 'Microsoft Sans Serif', sans-serif;font-size:11px;fill:white;">V</text>
        </g>
        <g transform="matrix(0.999885,-0.0151357,0.0151357,0.999885,386.004,140.76)">
            <text x="0px" y="0px" style="font-family:'MicrosoftSansSerif', 'Microsoft Sans Serif', sans-serif;font-size:11px;fill:white;">E</text>
        </g>
        <g transform="matrix(1,0.000325521,-0.000325521,1,396.272,140.624)">
            <text x="0px" y="0px" style="font-family:'MicrosoftSansSerif', 'Microsoft Sans Serif', sans-serif;font-size:11px;fill:white;">C</text>
        </g>
        <g transform="matrix(0.99992,0.0126166,-0.0126166,0.99992,404.212,140.624)">
            <text x="0px" y="0px" style="font-family:'MicrosoftSansSerif', 'Microsoft Sans Serif', sans-serif;font-size:11px;fill:white;">O</text>
        </g>
        <g transform="matrix(0.999686,0.0250396,-0.0250396,0.999686,412.769,140.734)">
            <text x="0px" y="0px" style="font-family:'MicrosoftSansSerif', 'Microsoft Sans Serif', sans-serif;font-size:11px;fill:white;">N</text>
        </g>
        <g transform="matrix(0.999338,0.0363853,-0.0363853,0.999338,420.716,140.936)">
            <text x="0px" y="0px" style="font-family:'MicrosoftSansSerif', 'Microsoft Sans Serif', sans-serif;font-size:11px;fill:white;">T</text>
        </g>
        <g transform="matrix(0.998826,0.0484401,-0.0484401,0.998826,427.419,141.175)">
            <text x="0px" y="0px" style="font-family:'MicrosoftSansSerif', 'Microsoft Sans Serif', sans-serif;font-size:11px;fill:white;">R</text>
        </g>
        <g transform="matrix(0.99807,0.0620998,-0.0620998,0.99807,435.364,141.557)">
            <text x="0px" y="0px" style="font-family:'MicrosoftSansSerif', 'Microsoft Sans Serif', sans-serif;font-size:11px;fill:white;">O</text>
        </g>
        <g transform="matrix(0.997123,0.0757983,-0.0757983,0.997123,443.886,142.093)">
            <text x="0px" y="0px" style="font-family:'MicrosoftSansSerif', 'Microsoft Sans Serif', sans-serif;font-size:11px;fill:white;">L</text>
        </g>
        <g transform="matrix(0.995489,0.09488,-0.09488,0.995489,452.92,142.796)">
            <text x="0px" y="0px" style="font-family:'MicrosoftSansSerif', 'Microsoft Sans Serif', sans-serif;font-size:11px;fill:white;">P</text>
        </g>
        <g transform="matrix(0.993855,0.110694,-0.110694,0.993855,460.219,143.489)">
            <text x="0px" y="0px" style="font-family:'MicrosoftSansSerif', 'Microsoft Sans Serif', sans-serif;font-size:11px;fill:white;">A</text>
        </g>
        <g transform="matrix(0.991491,0.130178,-0.130178,0.991491,467.507,144.294)">
            <text x="0px" y="0px" style="font-family:'MicrosoftSansSerif', 'Microsoft Sans Serif', sans-serif;font-size:11px;fill:white;">D</text>
        </g>
    </g>
</svg>
