<svg xmlns="http://www.w3.org/2000/svg" xml:space="preserve" style="fill-rule:evenodd;clip-rule:evenodd;stroke-linejoin:round;stroke-miterlimit:2" width="9216px" height="256px" viewBox="0 0 9216 256">
  <circle cx="576" cy="112" r="40" style="fill:#1ea0bd"/>
  <circle cx="1168" cy="64" r="40" style="fill:#d9bf2c"/>
  <circle cx="1648" cy="192" r="40" style="fill:#5fa94f"/>
  <circle cx="2240" cy="144" r="40" style="fill:#bb2e4f"/>
  <circle cx="2624" cy="112" r="40" style="fill:#1ea0bd"/>
  <circle cx="2704" cy="64" r="40" style="fill:#d9bf2c"/>
  <circle cx="3216" cy="64" r="40" style="fill:#d9bf2c"/>
  <circle cx="3264" cy="144" r="40" style="fill:#bb2e4f"/>
  <circle cx="3696" cy="192" r="40" style="fill:#5fa94f"/>
  <circle cx="3776" cy="144" r="40" style="fill:#bb2e4f"/>
  <circle cx="4160" cy="112" r="40" style="fill:#1ea0bd"/>
  <circle cx="4208" cy="192" r="40" style="fill:#5fa94f"/>
  <circle cx="4672" cy="112" r="40" style="fill:#1ea0bd"/>
  <circle cx="4752" cy="64" r="40" style="fill:#d9bf2c"/>
  <circle cx="4800" cy="144" r="40" style="fill:#bb2e4f"/>
  <circle cx="5232" cy="192" r="40" style="fill:#5fa94f"/>
  <circle cx="5264" cy="64" r="40" style="fill:#d9bf2c"/>
  <circle cx="5312" cy="144" r="40" style="fill:#bb2e4f"/>
  <circle cx="5696" cy="112" r="40" style="fill:#1ea0bd"/>
  <circle cx="5744" cy="192" r="40" style="fill:#5fa94f"/>
  <circle cx="5824" cy="144" r="40" style="fill:#bb2e4f"/>
  <circle cx="6208" cy="112" r="40" style="fill:#1ea0bd"/>
  <circle cx="6256" cy="192" r="40" style="fill:#5fa94f"/>
  <circle cx="6288" cy="64" r="40" style="fill:#d9bf2c"/>
  <circle cx="6768" cy="192" r="40" style="fill:#5fa94f"/>
  <circle cx="6800" cy="64" r="40" style="fill:#d9bf2c"/>
  <circle cx="7232" cy="112" r="40" style="fill:#1ea0bd"/>
  <circle cx="7360" cy="144" r="40" style="fill:#bb2e4f"/>
  <circle cx="7744" cy="112" r="40" style="fill:#1ea0bd"/>
  <circle cx="7792" cy="192" r="40" style="fill:#5fa94f"/>
  <circle cx="7824" cy="64" r="40" style="fill:#d9bf2c"/>
  <circle cx="7872" cy="144" r="40" style="fill:#bb2e4f"/>
  <path d="m8963 166 8.88-18.53a4.8 4.8 0 0 0-1.88-6.21l-8.88-5.26 7.11-3.55a4.4 4.4 0 0 0 1.87-6.1l-14.6-27.85 27.84 14.6a4.4 4.4 0 0 0 6.11-1.87l3.55-7.1 5.26 8.87a4.8 4.8 0 0 0 6.21 1.88L9023 106l-8.88 18.53a4.8 4.8 0 0 0 1.89 6.21l8.87 5.26-7.11 3.55a4.4 4.4 0 0 0-1.87 6.1l14.6 27.85-27.84-14.6a4.4 4.4 0 0 0-6.11 1.87l-3.55 7.1-5.26-8.87a4.8 4.8 0 0 0-6.21-1.88L8963 166Z" style="fill:#f7307b"/>
  <path d="m8959.39 164.27 8.88-18.53a.8.8 0 0 0-.31-1.04l-8.87-5.26a4 4 0 0 1 .25-7.02l7.1-3.55a.37.37 0 0 0 .21-.25.4.4 0 0 0-.03-.32l-.06-.1-14.6-27.84a4 4 0 0 1 5.4-5.4l27.84 14.6.1.06c.1.05.21.07.32.03a.4.4 0 0 0 .25-.2l3.55-7.11a4.02 4.02 0 0 1 7.02-.25l5.26 8.87a.8.8 0 0 0 1.04.31l18.53-8.88a4 4 0 0 1 5.34 5.34l-8.88 18.53a.8.8 0 0 0 .31 1.04l8.87 5.26a3.98 3.98 0 0 1-.25 7.02l-7.1 3.55a.37.37 0 0 0-.21.25.4.4 0 0 0 .03.32l.06.1 14.6 27.84a4 4 0 0 1-5.4 5.4l-27.84-14.6-.1-.06a.4.4 0 0 0-.32-.03.4.4 0 0 0-.25.2l-3.55 7.11a4.02 4.02 0 0 1-7.02.25l-5.26-8.87a.8.8 0 0 0-1.04-.31l-18.53 8.88a4 4 0 0 1-5.34-5.34ZM8963 166l18.53-8.88a4.8 4.8 0 0 1 6.21 1.88l5.26 8.88 3.55-7.11a4.4 4.4 0 0 1 6.11-1.88l27.84 14.61-14.6-27.84a4.4 4.4 0 0 1 1.87-6.1l7.11-3.56-8.87-5.26a4.8 4.8 0 0 1-1.89-6.2L9023 106l-18.53 8.88a4.8 4.8 0 0 1-6.21-1.88l-5.26-8.88-3.55 7.11a4.4 4.4 0 0 1-6.11 1.88L8955.5 98.5l14.6 27.84a4.4 4.4 0 0 1-1.87 6.1l-7.11 3.56 8.88 5.26a4.8 4.8 0 0 1 1.88 6.2L8963 166Z" style="fill:#323232"/>
  <path d="M8993 116.31a19.7 19.7 0 1 1-.01 39.4 19.7 19.7 0 0 1 .01-39.4Zm-3.15 5.63c-.33.43-1.24 1.4-.46 2.12.5.47 1.8 1.3 2.75.94 1.29-.51 3.79-2.94 4.56-4 .36-.5.86-.92.52-1.43-.38-.58-1.63-1.86-2.34-1.55a19.23 19.23 0 0 0-5.03 3.92Zm4.25 3.43c-.53.57-1.3 1.4-.46 2.49.43.57 1.75 1.62 2.64 1.23 1.38-.6 4.84-3.65 5.63-4.8.42-.65-.01-1.17-.47-1.71-.46-.54-1.18-1.33-1.84-1.09-1.22.47-4.5 2.82-5.5 3.88Zm5.35 11.25c-.27.28-.13.87 0 1.25.17.53.7 1.57 1.05 1.88.29.25.75.18 1.07 0a27.28 27.28 0 0 0 4.23-2.81c.44-.4 2.05-1.26 1.88-2.35-.11-.64-1.1-3.07-2.43-2.34a43.05 43.05 0 0 0-5.8 4.37Zm-13.95-11.87c-2.91.78-5.59 3.96-6.71 7.03a8.97 8.97 0 0 0 0 5.3c.99 3.25 8.27 11.33 8.27 11.33v3.87c.87 3.04 14.32 1.44 13.73-.15v-3c1.91-1.02 3.98-3.44 4.87-5.16.69-1.34 1.09-4.76.46-5.18-.62-.43-2.7 1.8-3.74 2.16-.8.28-2.62.81-2.97 0a11 11 0 0 0-5.03-5.57c-2.36-1.24-8-.14-9.17-.79-1.03-.56 1.17-3.47 2.17-3.55 1.92-.15 2.27 1.24 3.28 1.7.62.3 5.69.9 3.27-2.32-.87-1.14-2.34-3.79-6.09-5.67-.58-.3-1.7-.17-2.34 0Zm10.73 6.9c-.41.48-.29 1.45 0 2.03.3.62 1.08 2 1.81 1.7 1.53-.63 6.13-4.33 7.36-5.47.31-.3.28-1.09 0-1.41-.51-.56-1.46-2.33-2.56-1.95-1.52.53-5.59 3.92-6.61 5.1Z" style="fill:#323232"/>
  <path d="M8421.56 6.67c-13.09.46-17.93 10.64-13.12 23.9.76 2.12-2.03 3.7-2.82 1.88-1.29-2.99-7.26-6.42-9.84-6.1 4.29 4.74 4.34 10.02 4.22 12.67-.61 13.36.05 22.32 10.31 31.4 7.59 6.72 16.31 11.98 39.38 11.72-7-2.53-13.53-4.03-10.78-8.44 1.63-2.62 4.86-1.54 5.62.47 1.06 2.79 2.84 5.98 4.22 6.56 2.78-20.34 19.69-14.56 15-43.59-.46 6.88.19 10.02-2.81 12.19 1.15-11.73-5.29-28.02-28.13-35.63 1.57 2.83 7.14 6.59 5.16 7.97a3.4 3.4 0 0 1-2.81.47c-7.89-2.58-24.45-10.88-13.6-15.47Z" style="fill:#12d0c1"/>
  <path d="M8402.84 24.5c-.6-4.84.11-9.12 1.91-12.54 2.84-5.4 8.39-9 16.67-9.29a4 4 0 0 1 1.7 7.69c-.21.08-.43.2-.64.32a15.77 15.77 0 0 0 3.48 2.83c1 .63 2.08 1.23 3.18 1.79a4 4 0 0 1 4.94-5.4c15.71 5.24 24.29 14.29 28.23 23.5a4 4 0 0 1 5.39 3.1c2.65 16.42-1.08 22.93-5.59 28.28-3.38 4-7.65 7.04-9.16 15.04a3.99 3.99 0 0 1-3.22 6.32c-24.68.28-33.95-5.54-42.07-12.72-11.32-10.03-12.33-19.84-11.66-34.59.1-2.04.13-6.13-3.18-9.78a4 4 0 0 1 2.46-6.66c1.58-.2 4.05.3 6.5 1.54.36.18.71.37 1.06.57Zm18.72-17.83c-13.09.46-17.93 10.65-13.12 23.9.76 2.12-2.03 3.7-2.82 1.88-1.29-2.99-7.26-6.42-9.84-6.1 4.29 4.74 4.34 10.02 4.22 12.67-.61 13.36.05 22.32 10.31 31.4 7.59 6.72 16.31 11.98 39.38 11.72-7-2.53-13.53-4.03-10.78-8.44 1.63-2.62 4.86-1.54 5.62.47 1.06 2.79 2.84 5.98 4.22 6.56 2.78-20.34 19.69-14.56 15-43.59-.46 6.88.19 10.02-2.81 12.19 1.15-11.73-5.29-28.02-28.13-35.63 1.57 2.83 7.14 6.59 5.16 7.97a3.4 3.4 0 0 1-2.81.47c-7.89-2.58-24.45-10.88-13.6-15.47Z" style="fill:#323232"/>
  <path d="M8430.46 28.7c11 0 20.16 9.77 20.16 20.63 0 10.85-9.16 20.62-20.16 20.62-11.92 0-21.08-9.77-21.08-20.62 0-10.86 9.16-20.63 21.08-20.63Zm-7.96 9.38c-2.91.78-5.59 3.96-6.71 7.03a8.97 8.97 0 0 0 0 5.3c.99 3.24 8.27 11.33 8.27 11.33v3.87c.87 3.04 14.32 1.44 13.73-.15v-3c1.91-1.02 3.98-3.44 4.87-5.16.69-1.34 1.09-4.76.46-5.18-.62-.43-2.7 1.8-3.74 2.16-.8.28-2.62.81-2.97 0a11 11 0 0 0-5.03-5.57c-2.36-1.24-8-.14-9.17-.79-1.03-.56 1.17-3.47 2.17-3.55 1.92-.15 2.27 1.24 3.28 1.7.62.29 5.69.89 3.27-2.32-.87-1.15-2.34-3.79-6.09-5.67-.58-.3-1.7-.17-2.34 0Zm4.35-2.81c-.33.42-1.24 1.4-.46 2.12.5.46 1.8 1.3 2.75.94 1.29-.52 3.79-2.94 4.56-4 .36-.5.86-.92.52-1.43-.38-.58-1.63-1.86-2.34-1.56a19.21 19.21 0 0 0-5.03 3.93Zm4.25 3.42c-.53.57-1.3 1.4-.46 2.5.43.57 1.75 1.62 2.64 1.23 1.38-.6 4.84-3.65 5.63-4.81.42-.64-.01-1.16-.47-1.7-.46-.55-1.18-1.34-1.84-1.09-1.22.47-4.5 2.81-5.5 3.88Zm2.13 6.3c-.41.47-.29 1.43 0 2.02.3.62 1.08 2 1.81 1.7 1.53-.63 6.13-4.33 7.36-5.48.31-.29.28-1.08 0-1.4-.51-.56-1.46-2.33-2.56-1.95-1.52.52-5.59 3.92-6.61 5.1Zm3.22 4.95c-.27.28-.13.87 0 1.26.17.52.7 1.57 1.05 1.88.29.25.75.18 1.07 0a27.34 27.34 0 0 0 4.23-2.81c.44-.4 2.05-1.26 1.88-2.35-.11-.64-1.1-3.07-2.43-2.34a43.05 43.05 0 0 0-5.8 4.37Z" style="fill:#323232"/>
</svg>