<svg xmlns="http://www.w3.org/2000/svg" xml:space="preserve" style="fill-rule:evenodd;clip-rule:evenodd;stroke-linejoin:round;stroke-miterlimit:2" viewBox="0 0 4096 256"><circle cx="704" cy="64" r="64" style="fill:#e6ecf2" transform="matrix(.625 0 0 .625 -376 72)"/><circle cx="704" cy="64" r="64" style="fill:#e6ecf2" transform="matrix(.625 0 0 .625 -40 24)"/><circle cx="704" cy="64" r="64" style="fill:#e6ecf2" transform="matrix(.625 0 0 .625 184 152)"/><circle cx="704" cy="64" r="64" style="fill:#e6ecf2" transform="matrix(.625 0 0 .625 520 104)"/><circle cx="704" cy="64" r="64" style="fill:#e6ecf2" transform="matrix(.625 0 0 .625 648 72)"/><circle cx="704" cy="64" r="64" style="fill:#e6ecf2" transform="matrix(.625 0 0 .625 728 24)"/><circle cx="704" cy="64" r="64" style="fill:#e6ecf2" transform="matrix(.625 0 0 .625 984 24)"/><circle cx="704" cy="64" r="64" style="fill:#e6ecf2" transform="matrix(.625 0 0 .625 1032 104)"/><circle cx="704" cy="64" r="64" style="fill:#e6ecf2" transform="matrix(.625 0 0 .625 1208 152)"/><circle cx="704" cy="64" r="64" style="fill:#e6ecf2" transform="matrix(.625 0 0 .625 1288 104)"/><circle cx="704" cy="64" r="64" style="fill:#e6ecf2" transform="matrix(.625 0 0 .625 1416 72)"/><circle cx="704" cy="64" r="64" style="fill:#e6ecf2" transform="matrix(.625 0 0 .625 1464 152)"/><circle cx="704" cy="64" r="64" style="fill:#e6ecf2" transform="matrix(.625 0 0 .625 1672 72)"/><circle cx="704" cy="64" r="64" style="fill:#e6ecf2" transform="matrix(.625 0 0 .625 1752 24)"/><circle cx="704" cy="64" r="64" style="fill:#e6ecf2" transform="matrix(.625 0 0 .625 1800 104)"/><circle cx="704" cy="64" r="64" style="fill:#e6ecf2" transform="matrix(.625 0 0 .625 1976 152)"/><circle cx="704" cy="64" r="64" style="fill:#e6ecf2" transform="matrix(.625 0 0 .625 2008 24)"/><circle cx="704" cy="64" r="64" style="fill:#e6ecf2" transform="matrix(.625 0 0 .625 2056 104)"/><circle cx="704" cy="64" r="64" style="fill:#e6ecf2" transform="matrix(.625 0 0 .625 2184 72)"/><circle cx="704" cy="64" r="64" style="fill:#e6ecf2" transform="matrix(.625 0 0 .625 2232 152)"/><circle cx="704" cy="64" r="64" style="fill:#e6ecf2" transform="matrix(.625 0 0 .625 2312 104)"/><circle cx="704" cy="64" r="64" style="fill:#e6ecf2" transform="matrix(.625 0 0 .625 2440 72)"/><circle cx="704" cy="64" r="64" style="fill:#e6ecf2" transform="matrix(.625 0 0 .625 2488 152)"/><circle cx="704" cy="64" r="64" style="fill:#e6ecf2" transform="matrix(.625 0 0 .625 2520 24)"/><circle cx="704" cy="64" r="64" style="fill:#e6ecf2" transform="matrix(.625 0 0 .625 2744 152)"/><circle cx="704" cy="64" r="64" style="fill:#e6ecf2" transform="matrix(.625 0 0 .625 2776 24)"/><circle cx="704" cy="64" r="64" style="fill:#e6ecf2" transform="matrix(.625 0 0 .625 2952 72)"/><circle cx="704" cy="64" r="64" style="fill:#e6ecf2" transform="matrix(.625 0 0 .625 3080 104)"/><circle cx="704" cy="64" r="64" style="fill:#e6ecf2" transform="matrix(.625 0 0 .625 3208 72)"/><circle cx="704" cy="64" r="64" style="fill:#e6ecf2" transform="matrix(.625 0 0 .625 3256 152)"/><circle cx="704" cy="64" r="64" style="fill:#e6ecf2" transform="matrix(.625 0 0 .625 3288 24)"/><circle cx="704" cy="64" r="64" style="fill:#e6ecf2" transform="matrix(.625 0 0 .625 3336 104)"/></svg>