<?xml version="1.0" encoding="utf-8"?>
<!-- Generator: Adobe Illustrator 16.0.2, SVG Export Plug-In . SVG Version: 6.00 Build 0)  -->
<!DOCTYPE svg PUBLIC "-//W3C//DTD SVG 1.1//EN" "http://www.w3.org/Graphics/SVG/1.1/DTD/svg11.dtd">
<svg version="1.1" id="Layer_3" xmlns="http://www.w3.org/2000/svg" xmlns:xlink="http://www.w3.org/1999/xlink" x="0px" y="0px"
	 width="1170px" height="267.5px" viewBox="0 0 1170 267.5" enable-background="new 0 0 1170 267.5" xml:space="preserve">
<g>
	<path fill="#FFFFFF" d="M560.694,133.367c-1.25-1.25-72.5-75-73.75-76.25c-3.75-3.75-5-2.5-5,0c0,1.25,0,47.5,0,47.5h-90v58.75h90
		c0,0,0,46.25,0,47.5c0,2.5,1.25,3.75,5,0c1.042-1.043,75-76.25,73.75-75C560.694,135.867,561.944,134.617,560.694,133.367z"/>
	<path fill="none" stroke="#000000" stroke-width="10" stroke-miterlimit="10" d="M483.279,218.234
		c-3.051,0-6.335-2.306-6.335-7.367v-42.5h-85c-2.761,0-5-2.238-5-5v-58.75c0-2.762,2.239-5,5-5h85v-42.5
		c0-5.062,3.284-7.367,6.335-7.367c2.986,0,5.417,2.047,7.2,3.831c0.611,0.611,14.361,14.834,36.935,38.186
		c17.737,18.349,36.077,37.322,36.819,38.068c1.854,1.854,2.48,4.409,1.673,6.832c-0.478,1.434-1.331,2.391-1.677,2.735
		c-0.063,0.063-0.127,0.125-0.193,0.184c-0.2,0.22-0.397,0.42-0.575,0.602l-35.68,36.293c-16.86,17.146-36.745,37.365-37.3,37.921
		C488.696,216.187,486.266,218.234,483.279,218.234z"/>
	<path fill="none" stroke="#000000" stroke-width="4" stroke-linecap="square" stroke-linejoin="round" stroke-miterlimit="10" d="
		M491.944,153.367h-90v-38.75h90V76.658c7.023,7.263,50.212,51.94,55.999,57.922c-11.868,12.076-39.837,40.52-55.999,56.95V153.367z
		"/>
</g>
<path fill="none" stroke="#00A0C6" stroke-miterlimit="10" d="M163.125,64"/>
<g>
	
		<path fill="#EC4D3C" stroke="#111111" stroke-width="6" stroke-linecap="round" stroke-linejoin="round" stroke-miterlimit="10" d="
		M1145,238.5l-41.428-78.571c0,0,18.928-18.929,21.428-21.429s2.5-5,0-7.5s-23.842-25.331-23.842-25.331L1130,43.5l-59.602,29.486
		c0,0-22.898-24.486-25.398-26.986s-5-2.5-7.5,0s-23.555,23.555-23.555,23.555L937.5,28.5l41.055,76.445
		c0,0-23.555,23.555-26.055,26.055s-2.5,5,0,7.5s27.848,26.211,27.848,26.211L952.5,221l58.715-27.239
		c0,0,23.785,22.239,26.285,24.739s5,2.5,7.5,0s22.857-22.857,22.857-22.857L1145,238.5z"/>
	<circle fill="#111111" cx="1040" cy="133.5" r="60"/>
	<g>
		<path fill="#E94C3C" d="M1013.791,99.036c-2.367,0-14.061,11.396-16.57,16.747c-2.279,4.864-1.627,16.407,0,21.533
			c3.105,9.799,23.672,33.494,23.672,33.494s0,9.57,0,11.963c0,7.178,33.145,7.178,37.879,2.393
			c1.184-1.197,4.734-2.393,4.734-4.785s0-11.963,0-11.963s6.512-4.188,9.469-7.178c1.324-1.337,4.736-7.178,4.736-11.963
			c0-4.783-0.592-7.176-2.367-7.176c-7.104,0-14.205,9.568-14.205,9.568s-12.207-18.222-16.57-21.531
			c-9.469-7.178-26.043-7.178-26.043-7.178s2.605-4.651,4.734-4.785c2.643-0.166,9.473,4.785,9.473,4.785
			c9.469,2.393,11.836,0,9.469-7.178c-2.285-6.926-11.838-14.355-23.676-16.747"/>
		<path fill="#E94C3C" d="M1023.26,91.859c0-4.673,9.404-12.871,14.207-14.355c2.527-0.782,7.102,0,9.469,4.785
			c1.496,3.025,0,4.785,0,4.785l-14.203,11.962c0,0-9.473,2.956-9.473-2.392C1023.26,94.252,1023.26,94.252,1023.26,91.859z"/>
		<path fill="#E94C3C" d="M1037.467,101.691c0-4.671,11.1-12.869,15.906-14.354c2.527-0.782,4.734,0,7.102,4.785
			c1.496,3.025,0,6.913,0,6.913l-11.838,11.962c0,0-8.699,1.078-11.17-7.178C1037.125,102.677,1037.467,102.889,1037.467,101.691z"
			/>
		<path fill="#E94C3C" d="M1046.936,120.568c0-4.671,14.135-17.393,18.938-18.877c2.531-0.782,7.102,0,9.471,4.785
			c1.498,3.027,0,4.785,0,4.785l-18.939,18.877c0,0-6.998,3.471-9.469-4.785C1046.594,124.208,1046.936,121.766,1046.936,120.568z"
			/>
		<path fill="#E94C3C" d="M1056.404,137.316c0-4.673,16.502-17.656,21.307-19.141c2.529-0.782,4.068-1.563,6.436,3.223
			c1.5,3.025,0.707,3.825,0,4.785c-6.436,8.74-11.172,13.525-18.273,17.48c-2.244,1.249-6.994,4.301-9.469-3.955
			C1056.232,139.136,1056.404,137.914,1056.404,137.316z"/>
	</g>
</g>
<polygon fill="#FFFFFF" stroke="#000000" stroke-width="9" stroke-linejoin="round" stroke-miterlimit="10" points="129.825,34.572 
	156.517,107.107 233.75,110.078 173.013,157.877 194.054,232.25 129.825,189.256 65.596,232.25 86.637,157.877 25.9,110.078 
	103.133,107.107 "/>
<g>
	<rect x="746.25" y="101.75" fill="#101616" width="66.25" height="63.75"/>
	<circle fill="#101616" cx="725.625" cy="87.375" r="64.375"/>
	<circle fill="#101616" cx="833.125" cy="72.375" r="64.375"/>
	<circle fill="#101616" cx="833.125" cy="182.375" r="64.375"/>
	<circle fill="#101616" cx="725.625" cy="195.375" r="64.375"/>
	<circle fill="#424D4C" cx="725" cy="194.75" r="48.75"/>
	<circle fill="#424D4C" cx="725" cy="86.75" r="48.75"/>
	<circle fill="#424D4C" cx="832.5" cy="71.75" r="48.75"/>
	<circle fill="#424D4C" cx="832.5" cy="181.75" r="48.75"/>
</g>
</svg>
