<svg xmlns="http://www.w3.org/2000/svg" xml:space="preserve" style="fill-rule:evenodd;clip-rule:evenodd;stroke-linejoin:round;stroke-miterlimit:2" width="1280px" height="256px"  viewBox="0 0 1280 256">
  <path d="M647.58 38.43 665.73 92H723a8 8 0 0 1 4.78 14.42l-46.43 34.6 17.28 54.56a8 8 0 0 1-12.33 8.9l-46.3-33.6-46.3 33.6a8 8 0 0 1-12.33-8.9l17.28-54.57-46.43-34.6A8 8 0 0 1 557 92h57.26l18.16-53.57a8 8 0 0 1 15.16 0ZM640 41l-20 59h-63l51 38-19 60 51-37 51 37-19-60 51-38h-63l-20-59Z" style="fill:#323232"/>
  <path d="M972 156a6 6 0 0 1-6-6v-44a6 6 0 0 1 6-6h56V63.59a6.04 6.04 0 0 1 10.32-4.27l64.44 64.44a6 6 0 0 1 0 8.48l-64.52 64.52a6 6 0 0 1-10.24-4.25V156h-56Z" style="fill:#ebebeb"/>
  <path d="M972 164a14 14 0 0 1-14-14v-44a14 14 0 0 1 14-14h48V63.59a14.04 14.04 0 0 1 23.97-9.93l64.44 64.44a14 14 0 0 1 0 19.8l-64.51 64.51a14 14 0 0 1-23.9-9.9V164h-48Zm0-8h56v36.51a6 6 0 0 0 10.24 4.25l64.52-64.52a6 6 0 0 0 0-8.48l-64.44-64.44a6.05 6.05 0 0 0-10.32 4.27V100h-56a6 6 0 0 0-6 6v44a6 6 0 0 0 6 6Z" style="fill:#323232"/>
  <path d="M976 147v-38h62V73l55 55-55 55v-36h-62Z" style="fill:#ebebeb"/>
  <path d="M976 147v-38h62V73l55 55-55 55v-36h-62Zm4-4h62v30.34l45.34-45.34L1042 82.66V113h-62v30ZM92.17 68.3A52.02 52.02 0 0 1 144 12a52.02 52.02 0 0 1 43.7 80.17A52.02 52.02 0 0 1 244 144a52.02 52.02 0 0 1-80.18 43.7A52.02 52.02 0 0 1 112 244a52.02 52.02 0 0 1-43.7-80.18A52.02 52.02 0 0 1 12 112a52.02 52.02 0 0 1 80.17-43.7ZM90 71.66A48.02 48.02 0 0 0 16 112a48.02 48.02 0 0 0 51.97 47.84 4 4 0 0 1 3.69 6.16A48.02 48.02 0 0 0 112 240a48.02 48.02 0 0 0 47.84-51.97 4 4 0 0 1 6.16-3.69A48.02 48.02 0 0 0 240 144a48.02 48.02 0 0 0-51.97-47.84 4 4 0 0 1-3.69-6.16A48.02 48.02 0 0 0 144 16a48.02 48.02 0 0 0-47.84 51.97A4 4 0 0 1 90 71.66Z" style="fill:#323232"/>
  <g opacity=".5">
    <path d="M64 72c22.08 0 40 17.92 40 40s-17.92 40-40 40-40-17.92-40-40 17.92-40 40-40Zm0 2c-20.97 0-38 17.03-38 38s17.03 38 38 38 38-17.03 38-38-17.03-38-38-38Z" style="fill:#1ea0bd"/>
    <path d="M112 152c22.08 0 40 17.92 40 40s-17.92 40-40 40-40-17.92-40-40 17.92-40 40-40Zm0 2c-20.97 0-38 17.03-38 38s17.03 38 38 38 38-17.03 38-38-17.03-38-38-38Z" style="fill:#5fa94f"/>
    <path d="M144 24c22.08 0 40 17.92 40 40s-17.92 40-40 40-40-17.92-40-40 17.92-40 40-40Zm0 2c-20.97 0-38 17.03-38 38s17.03 38 38 38 38-17.03 38-38-17.03-38-38-38Z" style="fill:#d9bf2c"/>
    <path d="M192 104c22.08 0 40 17.92 40 40s-17.92 40-40 40-40-17.92-40-40 17.92-40 40-40Zm0 2c-20.97 0-38 17.03-38 38s17.03 38 38 38 38-17.03 38-38-17.03-38-38-38Z" style="fill:#bb2e4f"/>
  </g>
  <path d="m255.4 164.27 8.87-18.53a.8.8 0 0 0-.31-1.04l-8.87-5.26a4 4 0 0 1 .25-7.02l7.1-3.55a.4.4 0 0 0 .18-.57l-.06-.1-14.6-27.84a4 4 0 0 1 5.4-5.4l27.84 14.6.1.06a.4.4 0 0 0 .57-.18l3.55-7.1a4 4 0 0 1 7.02-.25l5.26 8.87a.8.8 0 0 0 1.04.31l18.53-8.88a4 4 0 0 1 5.34 5.34l-8.88 18.53a.8.8 0 0 0 .31 1.04l8.87 5.26a4 4 0 0 1-.25 7.02l-7.1 3.55a.4.4 0 0 0-.18.57l.06.1 14.6 27.84a4 4 0 0 1-5.4 5.4l-27.84-14.6a2.57 2.57 0 0 1-.1-.06.4.4 0 0 0-.57.18l-3.55 7.1a4 4 0 0 1-7.02.25l-5.26-8.87a.8.8 0 0 0-1.04-.31l-18.53 8.88a4 4 0 0 1-5.34-5.34ZM259 166l18.53-8.88a4.8 4.8 0 0 1 6.21 1.88l5.26 8.88 3.55-7.11a4.41 4.41 0 0 1 6.11-1.88l27.84 14.61-14.6-27.84a4.41 4.41 0 0 1 1.87-6.1l7.1-3.56-8.87-5.26a4.8 4.8 0 0 1-1.88-6.2L319 106l-18.53 8.88a4.8 4.8 0 0 1-6.21-1.88l-5.26-8.88-3.55 7.11a4.41 4.41 0 0 1-6.11 1.88L251.5 98.5l14.6 27.84a4.41 4.41 0 0 1-1.87 6.1l-7.1 3.56 8.87 5.26a4.8 4.8 0 0 1 1.88 6.2L259 166Z" style="fill:#323232"/>
  <path d="m259 166 8.88-18.53a4.8 4.8 0 0 0-1.88-6.21l-8.88-5.26 7.11-3.55a4.41 4.41 0 0 0 1.88-6.11L251.5 98.5l27.84 14.6a4.41 4.41 0 0 0 6.1-1.87l3.56-7.1 5.26 8.87a4.8 4.8 0 0 0 6.2 1.88L319 106l-8.88 18.53a4.8 4.8 0 0 0 1.88 6.21l8.88 5.26-7.11 3.55a4.41 4.41 0 0 0-1.88 6.11l14.61 27.84-27.84-14.6a4.41 4.41 0 0 0-6.1 1.87l-3.56 7.1-5.26-8.87a4.8 4.8 0 0 0-6.2-1.88L259 166Zm8.85-40.64a6.42 6.42 0 0 1-2.72 8.88l-3.83 1.9 5.71 3.4a6.8 6.8 0 0 1 2.67 8.8l-6.42 13.4 13.4-6.42a6.8 6.8 0 0 1 8.8 2.67l3.4 5.71 1.9-3.83a6.41 6.41 0 0 1 8.85-2.73l22.14 11.6-11.6-22.1a6.42 6.42 0 0 1 2.72-8.88l3.83-1.9-5.71-3.4a6.8 6.8 0 0 1-2.67-8.8l6.42-13.4-13.4 6.42a6.8 6.8 0 0 1-8.8-2.67l-3.4-5.71-1.9 3.83a6.41 6.41 0 0 1-8.85 2.73l-22.14-11.6 11.6 22.1Z" style="fill:#f7307b;fill-opacity:.5"/>
  <path d="M210.84 24.5c-.6-4.84.1-9.12 1.9-12.54 2.85-5.4 8.4-9 16.68-9.29a4 4 0 0 1 1.7 7.69c-.2.08-.43.2-.64.32a16.06 16.06 0 0 0 3.48 2.83c1 .63 2.08 1.23 3.18 1.79a4 4 0 0 1 4.94-5.4c15.71 5.24 24.29 14.29 28.23 23.5a4.01 4.01 0 0 1 5.39 3.1c2.65 16.42-1.08 22.93-5.6 28.28-3.37 4-7.64 7.04-9.15 15.04a4 4 0 0 1-3.22 6.32c-24.68.28-33.95-5.54-42.07-12.72-11.32-10.03-12.33-19.84-11.66-34.59.1-2.04.13-6.13-3.18-9.78a4 4 0 0 1 2.46-6.66c1.58-.2 4.05.3 6.5 1.54.36.18.71.37 1.06.57Zm18.72-17.83c-13.09.46-17.93 10.65-13.12 23.9.76 2.12-2.03 3.7-2.81 1.88-1.3-2.99-7.26-6.42-9.85-6.1 4.29 4.74 4.34 10.02 4.22 12.67-.6 13.36.05 22.32 10.31 31.4 7.59 6.72 16.31 11.98 39.38 11.72-7-2.53-13.53-4.03-10.78-8.44 1.63-2.62 4.86-1.54 5.62.47 1.06 2.79 2.84 5.98 4.22 6.56 2.78-20.34 19.7-14.56 15-43.59-.46 6.88.2 10.02-2.81 12.19 1.15-11.73-5.29-28.02-28.13-35.63 1.57 2.83 7.14 6.59 5.16 7.97a3.4 3.4 0 0 1-2.81.47c-7.9-2.58-24.45-10.88-13.6-15.47Z" style="fill:#323232"/>
  <path d="M229.56 6.67c-10.85 4.59 5.7 12.9 13.6 15.47.89.3 2.04.07 2.8-.47 1.99-1.38-3.58-5.14-5.15-7.97 22.84 7.61 29.28 23.9 28.13 35.63 3-2.17 2.35-5.31 2.81-12.19 4.7 29.03-12.22 23.25-15 43.6-1.38-.59-3.16-3.78-4.22-6.57-.76-2-4-3.09-5.62-.47-2.75 4.41 3.78 5.91 10.78 8.44-23.07.26-31.79-5-39.38-11.72-10.26-9.08-10.92-18.04-10.31-31.4.12-2.66.07-7.93-4.22-12.66 2.59-.33 8.55 3.1 9.84 6.1.8 1.81 3.58.23 2.82-1.88-4.81-13.26.03-23.45 13.12-23.9Zm26.07 69.52c1.61-5.93 4.54-9.36 7.47-12.57 2.35-2.58 4.71-4.98 6.13-8.8.44-1.18.78-2.48 1.01-3.97l-.13.1a2 2 0 0 1-3.16-1.82c.95-9.69-3.71-22.55-19.31-30.45l.1.16c.57.96.73 1.86.6 2.58a2.82 2.82 0 0 1-1.23 1.9 5.52 5.52 0 0 1-4.58.72c-5-1.64-13.28-5.52-16.65-9.37-1.46-1.66-2.08-3.39-1.84-4.98a10.7 10.7 0 0 0-5.98 5.07c-2.03 3.85-1.91 9.14.26 15.14a3.99 3.99 0 0 1-2.58 5.2c-1.53.46-3.15 0-3.95-1.85-.48-1.11-1.8-2.24-3.25-3.15a20.3 20.3 0 0 1 1.46 9c-.58 12.67-.09 21.21 9.64 29.82 5.98 5.3 12.7 9.6 27.09 10.85a7.3 7.3 0 0 1-.5-.38 5.08 5.08 0 0 1-1.9-3 5.2 5.2 0 0 1 .88-3.74c2.67-4.29 7.95-2.47 9.2.81.33.9.76 1.85 1.22 2.73Z" style="fill:#12d0c1;fill-opacity:.5"/>
</svg>