<svg xmlns="http://www.w3.org/2000/svg" xml:space="preserve" style="fill-rule:evenodd;clip-rule:evenodd;stroke-linejoin:round;stroke-miterlimit:2" width="1280px" height="256px"  viewBox="0 0 1280 256">
  <path d="M647.58 38.43 665.73 92H723a8 8 0 0 1 4.78 14.42l-46.43 34.6 17.28 54.56a8 8 0 0 1-12.33 8.9l-46.3-33.6-46.3 33.6a8 8 0 0 1-12.33-8.9l17.28-54.57-46.43-34.6A8 8 0 0 1 557 92h57.26l18.16-53.57a8 8 0 0 1 15.16 0ZM640 41l-20 59h-63l51 38-19 60 51-37 51 37-19-60 51-38h-63l-20-59Z" style="fill:#323232"/>
  <path d="M972 156a6 6 0 0 1-6-6v-44a6 6 0 0 1 6-6h56V63.59a6.04 6.04 0 0 1 10.32-4.27l64.44 64.44a6 6 0 0 1 0 8.48l-64.52 64.52a6 6 0 0 1-10.24-4.25V156h-56Z" style="fill:#ebebeb"/>
  <path d="M972 164a14 14 0 0 1-14-14v-44a14 14 0 0 1 14-14h48V63.59a14.04 14.04 0 0 1 23.97-9.93l64.44 64.44a14 14 0 0 1 0 19.8l-64.51 64.51a14 14 0 0 1-23.9-9.9V164h-48Zm0-8h56v36.51a6 6 0 0 0 10.24 4.25l64.52-64.52a6 6 0 0 0 0-8.48l-64.44-64.44a6.05 6.05 0 0 0-10.32 4.27V100h-56a6 6 0 0 0-6 6v44a6 6 0 0 0 6 6Z" style="fill:#323232"/>
  <path d="M976 147v-38h62V73l55 55-55 55v-36h-62Z" style="fill:#ebebeb"/>
  <path d="M976 147v-38h62V73l55 55-55 55v-36h-62Zm4-4h62v30.34l45.34-45.34L1042 82.66V113h-62v30ZM92.17 68.3A52.02 52.02 0 0 1 144 12a52.02 52.02 0 0 1 43.7 80.17A52.02 52.02 0 0 1 244 144a52.02 52.02 0 0 1-80.18 43.7A52.02 52.02 0 0 1 112 244a52.02 52.02 0 0 1-43.7-80.18A52.02 52.02 0 0 1 12 112a52.02 52.02 0 0 1 80.17-43.7ZM90 71.66A48.02 48.02 0 0 0 16 112a48.02 48.02 0 0 0 51.97 47.84 4 4 0 0 1 3.69 6.16A48.02 48.02 0 0 0 112 240a48.02 48.02 0 0 0 47.84-51.97 4 4 0 0 1 6.16-3.69A48.02 48.02 0 0 0 240 144a48.02 48.02 0 0 0-51.97-47.84 4 4 0 0 1-3.69-6.16A48.02 48.02 0 0 0 144 16a48.02 48.02 0 0 0-47.84 51.97A4 4 0 0 1 90 71.66Z" style="fill:#323232"/>
  <g opacity=".5">
    <path d="M64 72c22.08 0 40 17.92 40 40s-17.92 40-40 40-40-17.92-40-40 17.92-40 40-40Zm0 2c-20.97 0-38 17.03-38 38s17.03 38 38 38 38-17.03 38-38-17.03-38-38-38Z" style="fill:#1ea0bd"/>
    <path d="M112 152c22.08 0 40 17.92 40 40s-17.92 40-40 40-40-17.92-40-40 17.92-40 40-40Zm0 2c-20.97 0-38 17.03-38 38s17.03 38 38 38 38-17.03 38-38-17.03-38-38-38Z" style="fill:#5fa94f"/>
    <path d="M144 24c22.08 0 40 17.92 40 40s-17.92 40-40 40-40-17.92-40-40 17.92-40 40-40Zm0 2c-20.97 0-38 17.03-38 38s17.03 38 38 38 38-17.03 38-38-17.03-38-38-38Z" style="fill:#d9bf2c"/>
    <path d="M192 104c22.08 0 40 17.92 40 40s-17.92 40-40 40-40-17.92-40-40 17.92-40 40-40Zm0 2c-20.97 0-38 17.03-38 38s17.03 38 38 38 38-17.03 38-38-17.03-38-38-38Z" style="fill:#bb2e4f"/>
  </g>
</svg>
