<svg xmlns="http://www.w3.org/2000/svg" xml:space="preserve" style="fill-rule:evenodd;clip-rule:evenodd;stroke-linejoin:round;stroke-miterlimit:2" width="1280px" height="256px"  viewBox="0 0 1280 256">
  <path d="m640 41 20 59h63l-51 38 19 60-51-37-51 37 19-60-51-38h63l20-59Z" style="fill:#ebebeb"/>
  <path d="M647.577 38.432 665.735 92H723a7.999 7.999 0 0 1 4.78 14.415l-46.434 34.598 17.281 54.572a8.001 8.001 0 0 1-12.325 8.89L640 170.884l-46.302 33.591a8.001 8.001 0 0 1-12.325-8.89l17.281-54.572-46.434-34.598A7.998 7.998 0 0 1 557 92h57.265l18.158-53.568a8 8 0 0 1 15.154 0ZM640 41l-20 59h-63l51 38-19 60 51-37 51 37-19-60 51-38h-63l-20-59Z" style="fill:#111"/>
  <path d="M952 156v-56h88V49l79 79-79 79v-51h-88Z" style="fill:#ebebeb"/>
  <path d="M944 156v-56a8 8 0 0 1 8-8h80V49a8.004 8.004 0 0 1 13.66-5.657l79 79a8.008 8.008 0 0 1 0 11.314l-79 79A8.004 8.004 0 0 1 1032 207v-43h-80a8 8 0 0 1-8-8Zm8 0h88v51l79-79-79-79v51h-88v56Z" style="fill:#111"/>
  <path d="M958 150v-44h88V64l64 64-64 64v-42h-88Z" style="fill:#ebebeb"/>
  <path d="M958 150v-44h88V64l64 64-64 64v-42h-88Zm4-4h88v36.343L1104.34 128 1050 73.657V110h-88v36ZM92.175 68.296A52.614 52.614 0 0 1 92 64c0-28.7 23.3-52 52-52s52 23.3 52 52a51.732 51.732 0 0 1-8.297 28.175A52.657 52.657 0 0 1 192 92c28.7 0 52 23.3 52 52s-23.3 52-52 52a51.723 51.723 0 0 1-28.175-8.299c.116 1.418.175 2.851.175 4.299 0 28.7-23.3 52-52 52s-52-23.3-52-52a51.723 51.723 0 0 1 8.299-28.175A52.706 52.706 0 0 1 64 164c-28.7 0-52-23.3-52-52s23.3-52 52-52a51.74 51.74 0 0 1 28.175 8.296Z" style="fill:#111"/>
  <circle cx="64" cy="112" r="40" style="fill:#313339"/>
  <circle cx="112" cy="192" r="40" style="fill:#313339"/>
  <circle cx="144" cy="64" r="40" style="fill:#313339"/>
  <circle cx="192" cy="144" r="40" style="fill:#313339"/>
</svg>
